{"accessors":[{"componentType":5126,"type":"VEC3","count":24,"max":[0.5,0.5,0.5],"min":[-0.5,-0.5,-0.5],"bufferView":1},{"componentType":5126,"type":"VEC3","count":24,"bufferView":2},{"componentType":5126,"type":"VEC2","count":24,"bufferView":3},{"componentType":5121,"type":"SCALAR","count":36,"bufferView":4},{"componentType":5126,"type":"VEC3","count":24,"max":[0.5,0.5,0.5],"min":[-0.5,-0.5,-0.5],"bufferView":5},{"componentType":5126,"type":"VEC3","count":24,"bufferView":6},{"componentType":5126,"type":"VEC2","count":24,"bufferView":7},{"componentType":5121,"type":"SCALAR","count":36,"bufferView":8},{"componentType":5126,"type":"VEC3","count":24,"max":[0.5,0.5,0.5],"min":[-0.5,-0.5,-0.5],"bufferView":9},{"componentType":5126,"type":"VEC3","count":24,"bufferView":10},{"componentType":5126,"type":"VEC2","count":24,"bufferView":11},{"componentType":5121,"type":"SCALAR","count":36,"bufferView":12},{"componentType":5126,"type":"VEC3","count":24,"max":[0.5,0.5,0.5],"min":[-0.5,-0.5,-0.5],"bufferView":13},{"componentType":5126,"type":"VEC3","count":24,"bufferView":14},{"componentType":5126,"type":"VEC2","count":24,"bufferView":15},{"componentType":5121,"type":"SCALAR","count":36,"bufferView":16},{"componentType":5126,"type":"VEC3","count":72,"max":[0.5,0.5,0.5],"min":[-0.5,-0.5,-0.5],"bufferView":17},{"componentType":5126,"type":"VEC3","count":72,"bufferView":18},{"componentType":5126,"type":"VEC2","count":72,"bufferView":19},{"componentType":5121,"type":"SCALAR","count":72,"bufferView":20},{"componentType":5126,"type":"VEC3","count":2256,"max":[0.5,0.5,0.5],"min":[-0.5,-0.5,-0.5],"bufferView":21},{"componentType":5126,"type":"VEC3","count":2256,"bufferView":22},{"componentType":5126,"type":"VEC2","count":2256,"bufferView":23},{"componentType":5123,"type":"SCALAR","count":3312,"bufferView":24},{"componentType":5126,"type":"VEC3","count":2304,"max":[0.5,0.20000000298023224,0.5],"min":[-0.5,-0.20000000298023224,-0.5],"bufferView":25},{"componentType":5126,"type":"VEC3","count":2304,"bufferView":26},{"componentType":5126,"type":"VEC2","count":2304,"bufferView":27},{"componentType":5123,"type":"SCALAR","count":3456,"bufferView":28},{"componentType":5126,"type":"VEC3","count":2256,"max":[0.5,0.5,0.5],"min":[-0.5,-0.5,-0.5],"bufferView":29},{"componentType":5126,"type":"VEC3","count":2256,"bufferView":30},{"componentType":5126,"type":"VEC2","count":2256,"bufferView":31},{"componentType":5123,"type":"SCALAR","count":3312,"bufferView":32},{"componentType":5126,"type":"VEC3","count":24,"max":[0.5,0.5,0.5],"min":[-0.5,-0.5,-0.5],"bufferView":33},{"componentType":5126,"type":"VEC3","count":24,"bufferView":34},{"componentType":5126,"type":"VEC2","count":24,"bufferView":35},{"componentType":5121,"type":"SCALAR","count":36,"bufferView":36}],"asset":{"version":"2.0","generator":"triptych"},"bufferViews":[{"buffer":0,"byteOffset":0,"byteLength":273031},{"buffer":0,"byteOffset":273032,"byteLength":288,"target":34962,"byteStride":12},{"buffer":0,"byteOffset":273320,"byteLength":288,"target":34962,"byteStride":12},{"buffer":0,"byteOffset":273608,"byteLength":192,"target":34962,"byteStride":8},{"buffer":0,"byteOffset":273800,"byteLength":36,"target":34963},{"buffer":0,"byteOffset":273836,"byteLength":288,"target":34962,"byteStride":12},{"buffer":0,"byteOffset":274124,"byteLength":288,"target":34962,"byteStride":12},{"buffer":0,"byteOffset":274412,"byteLength":192,"target":34962,"byteStride":8},{"buffer":0,"byteOffset":274604,"byteLength":36,"target":34963},{"buffer":0,"byteOffset":274640,"byteLength":288,"target":34962,"byteStride":12},{"buffer":0,"byteOffset":274928,"byteLength":288,"target":34962,"byteStride":12},{"buffer":0,"byteOffset":275216,"byteLength":192,"target":34962,"byteStride":8},{"buffer":0,"byteOffset":275408,"byteLength":36,"target":34963},{"buffer":0,"byteOffset":275444,"byteLength":288,"target":34962,"byteStride":12},{"buffer":0,"byteOffset":275732,"byteLength":288,"target":34962,"byteStride":12},{"buffer":0,"byteOffset":276020,"byteLength":192,"target":34962,"byteStride":8},{"buffer":0,"byteOffset":276212,"byteLength":36,"target":34963},{"buffer":0,"byteOffset":276248,"byteLength":864,"target":34962,"byteStride":12},{"buffer":0,"byteOffset":277112,"byteLength":864,"target":34962,"byteStride":12},{"buffer":0,"byteOffset":277976,"byteLength":576,"target":34962,"byteStride":8},{"buffer":0,"byteOffset":278552,"byteLength":72,"target":34963},{"buffer":0,"byteOffset":278624,"byteLength":27072,"target":34962,"byteStride":12},{"buffer":0,"byteOffset":305696,"byteLength":27072,"target":34962,"byteStride":12},{"buffer":0,"byteOffset":332768,"byteLength":18048,"target":34962,"byteStride":8},{"buffer":0,"byteOffset":350816,"byteLength":6624,"target":34963},{"buffer":0,"byteOffset":357440,"byteLength":27648,"target":34962,"byteStride":12},{"buffer":0,"byteOffset":385088,"byteLength":27648,"target":34962,"byteStride":12},{"buffer":0,"byteOffset":412736,"byteLength":18432,"target":34962,"byteStride":8},{"buffer":0,"byteOffset":431168,"byteLength":6912,"target":34963},{"buffer":0,"byteOffset":438080,"byteLength":27072,"target":34962,"byteStride":12},{"buffer":0,"byteOffset":465152,"byteLength":27072,"target":34962,"byteStride":12},{"buffer":0,"byteOffset":492224,"byteLength":18048,"target":34962,"byteStride":8},{"buffer":0,"byteOffset":510272,"byteLength":6624,"target":34963},{"buffer":0,"byteOffset":516896,"byteLength":288,"target":34962,"byteStride":12},{"buffer":0,"byteOffset":517184,"byteLength":288,"target":34962,"byteStride":12},{"buffer":0,"byteOffset":517472,"byteLength":192,"target":34962,"byteStride":8},{"buffer":0,"byteOffset":517664,"byteLength":36,"target":34963}],"buffers":[{"byteLength":517700,"uri":"data:application/octet-stream;base64,"}],"images":[{"bufferView":0,"mimeType":"image/png"}],"materials":[{"name":"Physical2","pbrMetallicRoughness":{"baseColorFactor":[0.00784313725490196,0.21176470588235294,0.5294117647058824,1],"roughnessFactor":0.25,"metallicFactor":0},"normalTexture":{"index":0}},{"name":"Physical","pbrMetallicRoughness":{"baseColorFactor":[0.8588235294117647,0.2235294117647059,0.2235294117647059,1],"roughnessFactor":0.25,"metallicFactor":0}},{"name":"Physical1","pbrMetallicRoughness":{"baseColorFactor":[0.8470588235294118,0.9137254901960784,0.9294117647058824,1],"roughnessFactor":0.25,"metallicFactor":0}}],"meshes":[{"primitives":[{"indices":3,"material":0,"mode":4,"attributes":{"POSITION":0,"NORMAL":1,"TEXCOORD_0":2}}]},{"primitives":[{"indices":7,"material":1,"mode":4,"attributes":{"POSITION":4,"NORMAL":5,"TEXCOORD_0":6}}]},{"primitives":[{"indices":11,"material":1,"mode":4,"attributes":{"POSITION":8,"NORMAL":9,"TEXCOORD_0":10}}]},{"primitives":[{"indices":15,"material":1,"mode":4,"attributes":{"POSITION":12,"NORMAL":13,"TEXCOORD_0":14}}]},{"primitives":[{"indices":19,"material":1,"mode":4,"attributes":{"POSITION":16,"NORMAL":17,"TEXCOORD_0":18}}]},{"primitives":[{"indices":23,"material":2,"mode":4,"attributes":{"POSITION":20,"NORMAL":21,"TEXCOORD_0":22}}]},{"primitives":[{"indices":27,"material":2,"mode":4,"attributes":{"POSITION":24,"NORMAL":25,"TEXCOORD_0":26}}]},{"primitives":[{"indices":31,"material":2,"mode":4,"attributes":{"POSITION":28,"NORMAL":29,"TEXCOORD_0":30}}]},{"primitives":[{"indices":35,"material":1,"mode":4,"attributes":{"POSITION":32,"NORMAL":33,"TEXCOORD_0":34}}]}],"nodes":[{"name":"Objects","children":[1]},{"name":"boxman","children":[2]},{"name":"Box","translation":[-1.131600022315979,0,-0.32019999623298645],"mesh":0,"children":[3,4,5,6,10]},{"name":"Box1","translation":[0.6312999725341797,0.7239000201225281,0.475600004196167],"rotation":[-0.37635524698343203,0,0,0.9264754416880026],"scale":[0.18129999935626984,0.18130000029412782,1.0000000274381278],"mesh":1},{"name":"Box3","translation":[-0.31619998812675476,-0.852400004863739,0.12999999523162842],"rotation":[-0.05828270846652413,0.9411517705485553,-0.22681734152031582,0.24370138698754729],"scale":[0.3906000101229283,0.9999999978413614,0.46519999761039804],"mesh":2},{"name":"Box4","translation":[-0.6204000115394592,0.07429999858140945,-0.16099999845027924],"rotation":[0.9294677602913183,0,0,0.36890334484545323],"scale":[0.18129999935626984,0.18129999985837478,0.9999999918086147],"mesh":3},{"name":"Cone","translation":[-0.012900000438094139,1.0321999788284302,0.040699999779462814],"mesh":4,"children":[7,8,9]},{"name":"Sphere1","translation":[0.210999995470047,0.03700010105967522,0.16429999470710754],"scale":[0.334199994802475,0.334199994802475,0.334199994802475],"mesh":5},{"name":"Torus","translation":[0.035100001841783524,0.43459999561309814,-0.02410000003874302],"scale":[0.4846999943256378,0.5490999817848206,0.4846999943256378],"mesh":6},{"name":"Sphere","translation":[-0.1264999955892563,0.03759999945759773,0.17960000038146973],"scale":[0.3116999864578247,0.3116999864578247,0.3116999864578247],"mesh":7},{"name":"Box2","translation":[0.30649998784065247,-0.8321999907493591,-0.1404000073671341],"rotation":[0.23921007197490138,0.3515995451564265,0.09353520154391547,0.9002263380594184],"scale":[0.3905999910075826,0.9999999859990221,0.4652000077025725],"mesh":8}],"samplers":[{"magFilter":9729,"minFilter":9987,"wrapS":10497,"wrapT":10497}],"scene":0,"scenes":[{"nodes":[0]}],"textures":[{"sampler":0,"source":0}]}