{"accessors":[{"componentType":5126,"type":"VEC3","count":24,"max":[0.5,0.5,0.5],"min":[-0.5,-0.5,-0.5],"bufferView":2},{"componentType":5126,"type":"VEC3","count":24,"bufferView":3},{"componentType":5126,"type":"VEC2","count":24,"bufferView":4},{"componentType":5121,"type":"SCALAR","count":12,"bufferView":5},{"componentType":5121,"type":"SCALAR","count":12,"bufferView":6},{"componentType":5121,"type":"SCALAR","count":12,"bufferView":7}],"asset":{"version":"2.0","generator":"triptych"},"bufferViews":[{"buffer":0,"byteOffset":0,"byteLength":1581},{"buffer":0,"byteOffset":8192,"byteLength":179537},{"buffer":0,"byteOffset":187732,"byteLength":288,"target":34962,"byteStride":12},{"buffer":0,"byteOffset":188020,"byteLength":288,"target":34962,"byteStride":12},{"buffer":0,"byteOffset":188308,"byteLength":192,"target":34962,"byteStride":8},{"buffer":0,"byteOffset":188500,"byteLength":12,"target":34963},{"buffer":0,"byteOffset":188512,"byteLength":12,"target":34963},{"buffer":0,"byteOffset":188524,"byteLength":12,"target":34963}],"buffers":[{"byteLength":188536,"uri":"data:application/octet-stream;base64,"}],"images":[{"bufferView":0,"mimeType":"image/png"},{"bufferView":1,"mimeType":"image/png"}],"materials":[{"name":"Physical1","pbrMetallicRoughness":{"baseColorFactor":[0.6901960784313725,0.6901960784313725,0.6901960784313725,1],"baseColorTexture":{"index":1,"texCoord":0},"roughnessFactor":0.25,"metallicFactor":0}},{"name":"Physical","pbrMetallicRoughness":{"baseColorFactor":[0.6901960784313725,0.6901960784313725,0.6901960784313725,1],"baseColorTexture":{"index":0,"texCoord":0},"roughnessFactor":0.25,"metallicFactor":0}},{"name":"Box","pbrMetallicRoughness":{"baseColorFactor":[0.5,0.5,0.5,1]}}],"meshes":[{"primitives":[{"indices":3,"material":1,"mode":4,"attributes":{"POSITION":0,"NORMAL":1,"TEXCOORD_0":2}},{"indices":4,"material":0,"mode":4,"attributes":{"POSITION":0,"NORMAL":1,"TEXCOORD_0":2}},{"indices":5,"material":2,"mode":4,"attributes":{"POSITION":0,"NORMAL":1,"TEXCOORD_0":2}}]}],"nodes":[{"name":"Objects","children":[1]},{"name":"buffermultibad","children":[2]},{"name":"Box","mesh":0}],"samplers":[{"magFilter":9729,"minFilter":9987,"wrapS":10497,"wrapT":10497},{"magFilter":9729,"minFilter":9987,"wrapS":10497,"wrapT":10497}],"scene":0,"scenes":[{"nodes":[0]}],"textures":[{"sampler":0,"source":0},{"sampler":1,"source":1}]}