{"accessors":[{"componentType":5126,"type":"VEC3","count":24,"max":[0.5,0.5,0.5],"min":[-0.5,-0.5,-0.5],"bufferView":0},{"componentType":5126,"type":"VEC3","count":24,"bufferView":1},{"componentType":5126,"type":"VEC2","count":24,"bufferView":2},{"componentType":5121,"type":"SCALAR","count":36,"bufferView":3},{"componentType":5126,"type":"VEC3","count":24,"max":[0.5,0.5,0.5],"min":[-0.5,-0.5,-0.5],"bufferView":4},{"componentType":5126,"type":"VEC3","count":24,"bufferView":5},{"componentType":5126,"type":"VEC2","count":24,"bufferView":6},{"componentType":5121,"type":"SCALAR","count":36,"bufferView":7},{"componentType":5126,"type":"VEC3","count":24,"max":[0.5,0.5,0.5],"min":[-0.5,-0.5,-0.5],"bufferView":8},{"componentType":5126,"type":"VEC3","count":24,"bufferView":9},{"componentType":5126,"type":"VEC2","count":24,"bufferView":10},{"componentType":5121,"type":"SCALAR","count":36,"bufferView":11},{"componentType":5126,"type":"VEC3","count":24,"max":[0.5,0.5,0.5],"min":[-0.5,-0.5,-0.5],"bufferView":12},{"componentType":5126,"type":"VEC3","count":24,"bufferView":13},{"componentType":5126,"type":"VEC2","count":24,"bufferView":14},{"componentType":5121,"type":"SCALAR","count":36,"bufferView":15}],"asset":{"version":"2.0","generator":"triptych"},"bufferViews":[{"buffer":0,"byteOffset":0,"byteLength":288,"target":34962,"byteStride":12},{"buffer":0,"byteOffset":288,"byteLength":288,"target":34962,"byteStride":12},{"buffer":0,"byteOffset":576,"byteLength":192,"target":34962,"byteStride":8},{"buffer":0,"byteOffset":768,"byteLength":36,"target":34963},{"buffer":0,"byteOffset":804,"byteLength":288,"target":34962,"byteStride":12},{"buffer":0,"byteOffset":1092,"byteLength":288,"target":34962,"byteStride":12},{"buffer":0,"byteOffset":1380,"byteLength":192,"target":34962,"byteStride":8},{"buffer":0,"byteOffset":1572,"byteLength":36,"target":34963},{"buffer":0,"byteOffset":1608,"byteLength":288,"target":34962,"byteStride":12},{"buffer":0,"byteOffset":1896,"byteLength":288,"target":34962,"byteStride":12},{"buffer":0,"byteOffset":2184,"byteLength":192,"target":34962,"byteStride":8},{"buffer":0,"byteOffset":2376,"byteLength":36,"target":34963},{"buffer":0,"byteOffset":2412,"byteLength":288,"target":34962,"byteStride":12},{"buffer":0,"byteOffset":2700,"byteLength":288,"target":34962,"byteStride":12},{"buffer":0,"byteOffset":2988,"byteLength":192,"target":34962,"byteStride":8},{"buffer":0,"byteOffset":3180,"byteLength":36,"target":34963}],"buffers":[{"byteLength":3216,"uri":"data:application/octet-stream;base64,"}],"materials":[{"name":"Default-Box","pbrMetallicRoughness":{"baseColorFactor":[0.058823529411764705,0.9450980392156862,0.807843137254902,1]}},{"name":"Default-Box","pbrMetallicRoughness":{"baseColorFactor":[0.7529411764705882,1,0.9333333333333333,1]}},{"name":"Default-Box","pbrMetallicRoughness":{"baseColorFactor":[0.9411764705882353,0,0.050980392156862744,1]}},{"name":"Default-Box","pbrMetallicRoughness":{"baseColorFactor":[0.8549019607843137,0.8588235294117647,0.050980392156862744,1]}}],"meshes":[{"primitives":[{"indices":3,"mode":4,"attributes":{"POSITION":0,"NORMAL":1,"TEXCOORD_0":2}}]},{"primitives":[{"indices":7,"mode":4,"attributes":{"POSITION":4,"NORMAL":5,"TEXCOORD_0":6}}]},{"primitives":[{"indices":11,"mode":4,"attributes":{"POSITION":8,"NORMAL":9,"TEXCOORD_0":10}}]},{"primitives":[{"indices":15,"mode":4,"attributes":{"POSITION":12,"NORMAL":13,"TEXCOORD_0":14}}]}],"nodes":[{"name":"Objects","children":[1,2,3,4]},{"name":"Box","mesh":0},{"name":"Box","translation":[-1.3429875373840332,1.1102230246251565e-16,0.8592795729637146],"mesh":1},{"name":"Box","translation":[1.2102071046829224,0,-0.43644917011260986],"mesh":2},{"name":"Box","translation":[-0.9138471484184265,0,-1.305446743965149],"mesh":3}],"scene":0,"scenes":[{"nodes":[0]}]}