{"accessors":[{"componentType":5126,"type":"VEC3","count":20,"max":[0.5,0.5,0.5],"min":[-0.5,-0.5,-0.5],"bufferView":0},{"componentType":5126,"type":"VEC3","count":20,"bufferView":1},{"componentType":5126,"type":"VEC2","count":20,"bufferView":2},{"componentType":5121,"type":"SCALAR","count":30,"bufferView":3},{"componentType":5126,"type":"VEC3","count":20,"max":[0.5,0.5,0.5],"min":[-0.5,-0.5,-0.5],"bufferView":4},{"componentType":5126,"type":"VEC3","count":20,"bufferView":5},{"componentType":5126,"type":"VEC2","count":20,"bufferView":6},{"componentType":5121,"type":"SCALAR","count":30,"bufferView":7},{"componentType":5126,"type":"VEC3","count":20,"max":[0.5,0.5,0.5],"min":[-0.5,-0.5,-0.5],"bufferView":8},{"componentType":5126,"type":"VEC3","count":20,"bufferView":9},{"componentType":5126,"type":"VEC2","count":20,"bufferView":10},{"componentType":5121,"type":"SCALAR","count":30,"bufferView":11},{"componentType":5126,"type":"VEC3","count":20,"max":[0.5,0.5,0.5],"min":[-0.5,-0.5,-0.5],"bufferView":12},{"componentType":5126,"type":"VEC3","count":20,"bufferView":13},{"componentType":5126,"type":"VEC2","count":20,"bufferView":14},{"componentType":5121,"type":"SCALAR","count":30,"bufferView":15},{"componentType":5126,"type":"VEC3","count":20,"max":[0.5,0.5,0.5],"min":[-0.5,-0.5,-0.5],"bufferView":16},{"componentType":5126,"type":"VEC3","count":20,"bufferView":17},{"componentType":5126,"type":"VEC2","count":20,"bufferView":18},{"componentType":5121,"type":"SCALAR","count":30,"bufferView":19}],"asset":{"version":"2.0","generator":"triptych"},"bufferViews":[{"buffer":0,"byteOffset":0,"byteLength":240,"target":34962,"byteStride":12},{"buffer":0,"byteOffset":240,"byteLength":240,"target":34962,"byteStride":12},{"buffer":0,"byteOffset":480,"byteLength":160,"target":34962,"byteStride":8},{"buffer":0,"byteOffset":640,"byteLength":30,"target":34963},{"buffer":0,"byteOffset":672,"byteLength":240,"target":34962,"byteStride":12},{"buffer":0,"byteOffset":912,"byteLength":240,"target":34962,"byteStride":12},{"buffer":0,"byteOffset":1152,"byteLength":160,"target":34962,"byteStride":8},{"buffer":0,"byteOffset":1312,"byteLength":30,"target":34963},{"buffer":0,"byteOffset":1344,"byteLength":240,"target":34962,"byteStride":12},{"buffer":0,"byteOffset":1584,"byteLength":240,"target":34962,"byteStride":12},{"buffer":0,"byteOffset":1824,"byteLength":160,"target":34962,"byteStride":8},{"buffer":0,"byteOffset":1984,"byteLength":30,"target":34963},{"buffer":0,"byteOffset":2016,"byteLength":240,"target":34962,"byteStride":12},{"buffer":0,"byteOffset":2256,"byteLength":240,"target":34962,"byteStride":12},{"buffer":0,"byteOffset":2496,"byteLength":160,"target":34962,"byteStride":8},{"buffer":0,"byteOffset":2656,"byteLength":30,"target":34963},{"buffer":0,"byteOffset":2688,"byteLength":240,"target":34962,"byteStride":12},{"buffer":0,"byteOffset":2928,"byteLength":240,"target":34962,"byteStride":12},{"buffer":0,"byteOffset":3168,"byteLength":160,"target":34962,"byteStride":8},{"buffer":0,"byteOffset":3328,"byteLength":30,"target":34963}],"buffers":[{"byteLength":3360,"uri":"data:application/octet-stream;base64,"}],"materials":[{"name":"0ff1ce","pbrMetallicRoughness":{"baseColorFactor":[0.058823529411764705,0.9450980392156862,0.807843137254902,1],"roughnessFactor":0.25,"metallicFactor":0},"doubleSided":true},{"name":"FF0023","pbrMetallicRoughness":{"baseColorFactor":[1,0,0.13725490196078433,1],"roughnessFactor":0.25,"metallicFactor":0},"doubleSided":true},{"name":"0ff1ce_t","pbrMetallicRoughness":{"baseColorFactor":[0.058823529411764705,0.9450980392156862,0.807843137254902,0.5],"roughnessFactor":0.25,"metallicFactor":0},"alphaMode":"BLEND","doubleSided":true},{"name":"FF0023_t","pbrMetallicRoughness":{"baseColorFactor":[1,0,0.13725490196078433,0.5],"roughnessFactor":0.25,"metallicFactor":0},"alphaMode":"BLEND","doubleSided":true}],"meshes":[{"primitives":[{"indices":3,"material":0,"mode":4,"attributes":{"POSITION":0,"NORMAL":1,"TEXCOORD_0":2}}]},{"primitives":[{"indices":7,"material":1,"mode":4,"attributes":{"POSITION":4,"NORMAL":5,"TEXCOORD_0":6}}]},{"primitives":[{"indices":11,"material":0,"mode":4,"attributes":{"POSITION":8,"NORMAL":9,"TEXCOORD_0":10}}]},{"primitives":[{"indices":15,"material":3,"mode":4,"attributes":{"POSITION":12,"NORMAL":13,"TEXCOORD_0":14}}]},{"primitives":[{"indices":19,"material":2,"mode":4,"attributes":{"POSITION":16,"NORMAL":17,"TEXCOORD_0":18}}]}],"nodes":[{"name":"Objects","children":[1]},{"name":"double-side","children":[2,3,4,5,6]},{"name":"Box2","translation":[1.4077999591827393,0,0],"mesh":0},{"name":"Box","translation":[1.0781999826431274,0,0.24220000207424164],"rotation":[0,0.3057219038423733,0,0.9521208539048407],"scale":[1.0000000295426843,1,1.7484000345176929],"mesh":1},{"name":"Box1","translation":[-1.5148999691009521,0,0],"mesh":2},{"name":"Box4","translation":[0.25220000743865967,0,-2.5978000164031982],"rotation":[0,0.3057219038423733,0,0.9521208539048407],"scale":[1.0000000295426843,1,1.7484000345176929],"mesh":3},{"name":"Box3","translation":[0.5817999839782715,0,-2.8399999141693115],"mesh":4}],"scene":0,"scenes":[{"nodes":[0]}]}