{"accessors":[{"componentType":5126,"type":"VEC3","count":2399,"max":[96.17990112304688,163.97000122070312,53.92519760131836],"min":[-69.29850006103516,9.929369926452637,-61.32819747924805],"bufferView":1},{"componentType":5126,"type":"VEC3","count":2399,"bufferView":2},{"componentType":5126,"type":"VEC2","count":2399,"bufferView":3},{"componentType":5123,"type":"SCALAR","count":12636,"bufferView":4}],"asset":{"version":"2.0","generator":"triptych"},"bufferViews":[{"buffer":0,"byteOffset":0,"byteLength":16302},{"buffer":0,"byteOffset":16304,"byteLength":28788,"target":34962,"byteStride":12},{"buffer":0,"byteOffset":45092,"byteLength":28788,"target":34962,"byteStride":12},{"buffer":0,"byteOffset":73880,"byteLength":19192,"target":34962,"byteStride":8},{"buffer":0,"byteOffset":93072,"byteLength":25272,"target":34963}],"buffers":[{"byteLength":118344,"uri":"data:application/octet-stream;base64,"}],"images":[{"bufferView":0,"mimeType":"image/png"}],"materials":[{"name":"blinn3-fx","pbrMetallicRoughness":{"baseColorFactor":[0.94,0.94,0.94,1],"baseColorTexture":{"index":0,"texCoord":0}}}],"meshes":[{"primitives":[{"indices":3,"material":0,"mode":4,"attributes":{"POSITION":0,"NORMAL":1,"TEXCOORD_0":2}}]}],"nodes":[{"name":"Duck","children":[1]},{"name":"null-0","scale":[0.009999999776482582,0.009999999776482582,0.009999999776482582],"children":[2,3]},{"name":"null-1","translation":[400.1130065917969,463.2640075683594,-431.0780334472656],"rotation":[-0.12106388061888305,0.8780589533637896,0.3057724857651347,0.3476481061952553]},{"name":"LOD3spShape","mesh":0}],"samplers":[{"magFilter":9729,"minFilter":9986,"wrapS":10497,"wrapT":10497}],"scene":0,"scenes":[{"nodes":[0]}],"textures":[{"sampler":0,"source":0}]}