{"accessors":[{"componentType":5126,"type":"VEC3","count":1128,"max":[0.5,0.5,0.5],"min":[-0.5,-3.0616171314629196e-17,-0.5],"bufferView":0},{"componentType":5126,"type":"VEC3","count":1128,"bufferView":1},{"componentType":5126,"type":"VEC2","count":1128,"bufferView":2},{"componentType":5123,"type":"SCALAR","count":1656,"bufferView":3},{"componentType":5126,"type":"VEC3","count":1128,"max":[0.5,0.5,0.5],"min":[-0.5,-3.0616171314629196e-17,-0.5],"bufferView":4},{"componentType":5126,"type":"VEC3","count":1128,"bufferView":5},{"componentType":5126,"type":"VEC2","count":1128,"bufferView":6},{"componentType":5123,"type":"SCALAR","count":1656,"bufferView":7},{"componentType":5126,"type":"VEC3","count":2256,"max":[0.5,0.5,0.5],"min":[-0.5,-0.5,-0.5],"bufferView":8},{"componentType":5126,"type":"VEC3","count":2256,"bufferView":9},{"componentType":5126,"type":"VEC2","count":2256,"bufferView":10},{"componentType":5123,"type":"SCALAR","count":3312,"bufferView":11},{"componentType":5126,"type":"VEC3","count":2256,"max":[0.5,0.5,0.5],"min":[-0.5,-0.5,-0.5],"bufferView":12},{"componentType":5126,"type":"VEC3","count":2256,"bufferView":13},{"componentType":5126,"type":"VEC2","count":2256,"bufferView":14},{"componentType":5123,"type":"SCALAR","count":3312,"bufferView":15}],"asset":{"version":"2.0","generator":"triptych"},"bufferViews":[{"buffer":0,"byteOffset":0,"byteLength":13536,"target":34962,"byteStride":12},{"buffer":0,"byteOffset":13536,"byteLength":13536,"target":34962,"byteStride":12},{"buffer":0,"byteOffset":27072,"byteLength":9024,"target":34962,"byteStride":8},{"buffer":0,"byteOffset":36096,"byteLength":3312,"target":34963},{"buffer":0,"byteOffset":39408,"byteLength":13536,"target":34962,"byteStride":12},{"buffer":0,"byteOffset":52944,"byteLength":13536,"target":34962,"byteStride":12},{"buffer":0,"byteOffset":66480,"byteLength":9024,"target":34962,"byteStride":8},{"buffer":0,"byteOffset":75504,"byteLength":3312,"target":34963},{"buffer":0,"byteOffset":78816,"byteLength":27072,"target":34962,"byteStride":12},{"buffer":0,"byteOffset":105888,"byteLength":27072,"target":34962,"byteStride":12},{"buffer":0,"byteOffset":132960,"byteLength":18048,"target":34962,"byteStride":8},{"buffer":0,"byteOffset":151008,"byteLength":6624,"target":34963},{"buffer":0,"byteOffset":157632,"byteLength":27072,"target":34962,"byteStride":12},{"buffer":0,"byteOffset":184704,"byteLength":27072,"target":34962,"byteStride":12},{"buffer":0,"byteOffset":211776,"byteLength":18048,"target":34962,"byteStride":8},{"buffer":0,"byteOffset":229824,"byteLength":6624,"target":34963}],"buffers":[{"byteLength":236448,"uri":"data:application/octet-stream;base64,"}],"materials":[{"name":"b9dbe4_1","pbrMetallicRoughness":{"baseColorFactor":[0.7254901960784313,0.8588235294117647,0.8941176470588236,0.7],"roughnessFactor":0.25,"metallicFactor":0},"alphaMode":"BLEND"},{"name":"Physical1","pbrMetallicRoughness":{"baseColorFactor":[0.49019607843137253,0.32941176470588235,0.06274509803921569,0.7],"roughnessFactor":0.25,"metallicFactor":0},"alphaMode":"BLEND"},{"name":"b9dbe4_2","pbrMetallicRoughness":{"baseColorFactor":[0.7254901960784313,0.8588235294117647,0.8941176470588236,1],"roughnessFactor":0.25,"metallicFactor":0}}],"meshes":[{"primitives":[{"indices":3,"material":1,"mode":4,"attributes":{"POSITION":0,"NORMAL":1,"TEXCOORD_0":2}}]},{"primitives":[{"indices":7,"material":1,"mode":4,"attributes":{"POSITION":4,"NORMAL":5,"TEXCOORD_0":6}}]},{"primitives":[{"indices":11,"material":0,"mode":4,"attributes":{"POSITION":8,"NORMAL":9,"TEXCOORD_0":10}}]},{"primitives":[{"indices":15,"material":2,"mode":4,"attributes":{"POSITION":12,"NORMAL":13,"TEXCOORD_0":14}}]}],"nodes":[{"name":"Objects","children":[1,2]},{"name":"transparent-lamp1","children":[3,5]},{"name":"transparent-lamp2","children":[4,6]},{"name":"Sphere","translation":[-1.1065152883529663,0,0],"mesh":0},{"name":"Sphere","translation":[0.5210119485855103,0,0],"mesh":1},{"name":"Sphere1","translation":[-1.0862655639648438,0,0],"scale":[0.30799999833106995,0.30799999833106995,0.30799999833106995],"mesh":2},{"name":"Sphere1","translation":[0.5806140303611755,0,0],"scale":[0.30799999833106995,0.30799999833106995,0.30799999833106995],"mesh":3}],"scene":0,"scenes":[{"nodes":[0]}]}