{"accessors":[{"componentType":5126,"type":"VEC3","count":24,"max":[0.5,0.5,0.5],"min":[-0.5,-0.5,-0.5],"bufferView":0},{"componentType":5126,"type":"VEC3","count":24,"bufferView":1},{"componentType":5126,"type":"VEC2","count":24,"bufferView":2},{"componentType":5121,"type":"SCALAR","count":36,"bufferView":3},{"componentType":5126,"type":"VEC3","count":24,"max":[0.5,0.5,0.5],"min":[-0.5,-0.5,-0.5],"bufferView":4},{"componentType":5126,"type":"VEC3","count":24,"bufferView":5},{"componentType":5126,"type":"VEC2","count":24,"bufferView":6},{"componentType":5121,"type":"SCALAR","count":36,"bufferView":7},{"componentType":5126,"type":"VEC3","count":24,"max":[0.5,0.5,0.5],"min":[-0.5,-0.5,-0.5],"bufferView":8},{"componentType":5126,"type":"VEC3","count":24,"bufferView":9},{"componentType":5126,"type":"VEC2","count":24,"bufferView":10},{"componentType":5121,"type":"SCALAR","count":36,"bufferView":11},{"componentType":5126,"type":"VEC3","count":24,"max":[0.5,0.5,0.5],"min":[-0.5,-0.5,-0.5],"bufferView":12},{"componentType":5126,"type":"VEC3","count":24,"bufferView":13},{"componentType":5126,"type":"VEC2","count":24,"bufferView":14},{"componentType":5121,"type":"SCALAR","count":36,"bufferView":15},{"componentType":5126,"type":"VEC3","count":24,"max":[0.5,0.5,0.5],"min":[-0.5,-0.5,-0.5],"bufferView":16},{"componentType":5126,"type":"VEC3","count":24,"bufferView":17},{"componentType":5126,"type":"VEC2","count":24,"bufferView":18},{"componentType":5121,"type":"SCALAR","count":36,"bufferView":19}],"asset":{"version":"2.0","generator":"triptych"},"bufferViews":[{"buffer":0,"byteOffset":0,"byteLength":288,"target":34962,"byteStride":12},{"buffer":0,"byteOffset":288,"byteLength":288,"target":34962,"byteStride":12},{"buffer":0,"byteOffset":576,"byteLength":192,"target":34962,"byteStride":8},{"buffer":0,"byteOffset":768,"byteLength":36,"target":34963},{"buffer":0,"byteOffset":804,"byteLength":288,"target":34962,"byteStride":12},{"buffer":0,"byteOffset":1092,"byteLength":288,"target":34962,"byteStride":12},{"buffer":0,"byteOffset":1380,"byteLength":192,"target":34962,"byteStride":8},{"buffer":0,"byteOffset":1572,"byteLength":36,"target":34963},{"buffer":0,"byteOffset":1608,"byteLength":288,"target":34962,"byteStride":12},{"buffer":0,"byteOffset":1896,"byteLength":288,"target":34962,"byteStride":12},{"buffer":0,"byteOffset":2184,"byteLength":192,"target":34962,"byteStride":8},{"buffer":0,"byteOffset":2376,"byteLength":36,"target":34963},{"buffer":0,"byteOffset":2412,"byteLength":288,"target":34962,"byteStride":12},{"buffer":0,"byteOffset":2700,"byteLength":288,"target":34962,"byteStride":12},{"buffer":0,"byteOffset":2988,"byteLength":192,"target":34962,"byteStride":8},{"buffer":0,"byteOffset":3180,"byteLength":36,"target":34963},{"buffer":0,"byteOffset":3216,"byteLength":288,"target":34962,"byteStride":12},{"buffer":0,"byteOffset":3504,"byteLength":288,"target":34962,"byteStride":12},{"buffer":0,"byteOffset":3792,"byteLength":192,"target":34962,"byteStride":8},{"buffer":0,"byteOffset":3984,"byteLength":36,"target":34963}],"buffers":[{"byteLength":4020,"uri":"data:application/octet-stream;base64,"}],"materials":[{"name":"MaterialC","pbrMetallicRoughness":{"baseColorFactor":[0,0.8313725490196079,1,0.75],"roughnessFactor":0.25,"metallicFactor":0},"alphaMode":"BLEND"},{"name":"MaterialB","pbrMetallicRoughness":{"baseColorFactor":[0,1,0,0.75],"roughnessFactor":0.25,"metallicFactor":0},"alphaMode":"BLEND"},{"name":"MaterialE","pbrMetallicRoughness":{"baseColorFactor":[0.9372549019607843,0.9372549019607843,0.9372549019607843,0.75],"roughnessFactor":0.25,"metallicFactor":0},"alphaMode":"BLEND"},{"name":"MaterialA","pbrMetallicRoughness":{"baseColorFactor":[1,0.8352941176470589,0,0.75],"roughnessFactor":0.25,"metallicFactor":0},"alphaMode":"BLEND"},{"name":"MaterialD","pbrMetallicRoughness":{"baseColorFactor":[0.3333333333333333,0,1,0.75],"roughnessFactor":0.25,"metallicFactor":0},"alphaMode":"BLEND"}],"meshes":[{"primitives":[{"indices":3,"material":0,"mode":4,"attributes":{"POSITION":0,"NORMAL":1,"TEXCOORD_0":2}}]},{"primitives":[{"indices":7,"material":1,"mode":4,"attributes":{"POSITION":4,"NORMAL":5,"TEXCOORD_0":6}}]},{"primitives":[{"indices":11,"material":2,"mode":4,"attributes":{"POSITION":8,"NORMAL":9,"TEXCOORD_0":10}}]},{"primitives":[{"indices":15,"material":3,"mode":4,"attributes":{"POSITION":12,"NORMAL":13,"TEXCOORD_0":14}}]},{"primitives":[{"indices":19,"material":4,"mode":4,"attributes":{"POSITION":16,"NORMAL":17,"TEXCOORD_0":18}}]}],"nodes":[{"name":"Objects","children":[1,2,3,4,5]},{"name":"BoxC","translation":[0.08545517921447754,-0.13843955099582672,0.05298437923192978],"scale":[1,1,0.009999999776482582],"mesh":0},{"name":"BoxB","translation":[0.00104746432043612,0.37828829884529114,0.10000000149011612],"scale":[1,1,0.009999999776482582],"mesh":1},{"name":"BoxE","translation":[-0.015623603947460651,0.2703816592693329,-0.20000000298023224],"scale":[1,1,0.009999999776482582],"mesh":2},{"name":"BoxA","translation":[-0.265348345041275,0.20055058598518372,0.20000000298023224],"scale":[1,1,0.009999999776482582],"mesh":3},{"name":"BoxD","translation":[0.17420653998851776,0.15168453752994537,-0.10000000149011612],"scale":[1,1,0.009999999776482582],"mesh":4}],"scene":0,"scenes":[{"nodes":[0]}]}