{"accessors":[{"componentType":5126,"type":"VEC3","count":24,"max":[0.5,0.5,0.5],"min":[-0.5,-0.5,-0.5],"bufferView":3},{"componentType":5126,"type":"VEC3","count":24,"bufferView":4},{"componentType":5126,"type":"VEC2","count":24,"bufferView":5},{"componentType":5121,"type":"SCALAR","count":6,"bufferView":6},{"componentType":5121,"type":"SCALAR","count":24,"bufferView":7},{"componentType":5121,"type":"SCALAR","count":6,"bufferView":8}],"asset":{"version":"2.0","generator":"triptych"},"bufferViews":[{"buffer":0,"byteOffset":0,"byteLength":9206},{"buffer":0,"byteOffset":9208,"byteLength":67439},{"buffer":0,"byteOffset":76648,"byteLength":417816},{"buffer":0,"byteOffset":494464,"byteLength":288,"target":34962,"byteStride":12},{"buffer":0,"byteOffset":494752,"byteLength":288,"target":34962,"byteStride":12},{"buffer":0,"byteOffset":495040,"byteLength":192,"target":34962,"byteStride":8},{"buffer":0,"byteOffset":495232,"byteLength":6,"target":34963},{"buffer":0,"byteOffset":495240,"byteLength":24,"target":34963},{"buffer":0,"byteOffset":495264,"byteLength":6,"target":34963}],"buffers":[{"byteLength":495272,"uri":"data:application/octet-stream;base64,"}],"images":[{"bufferView":2,"mimeType":"image/jpeg"},{"bufferView":1,"mimeType":"image/jpeg"},{"bufferView":0,"mimeType":"image/jpeg"}],"materials":[{"name":"Physical2","pbrMetallicRoughness":{"baseColorTexture":{"index":0,"texCoord":0},"roughnessFactor":0.25,"metallicFactor":0}},{"name":"Physical1","pbrMetallicRoughness":{"baseColorFactor":[0.6901960784313725,0.6901960784313725,0.6901960784313725,1],"baseColorTexture":{"index":2,"texCoord":0},"roughnessFactor":0.25,"metallicFactor":0}},{"name":"Physical","pbrMetallicRoughness":{"baseColorFactor":[0.6901960784313725,0.6901960784313725,0.6901960784313725,1],"baseColorTexture":{"index":1,"texCoord":0},"roughnessFactor":0.25,"metallicFactor":0}}],"meshes":[{"primitives":[{"indices":3,"material":2,"mode":4,"attributes":{"POSITION":0,"NORMAL":1,"TEXCOORD_0":2}},{"indices":4,"material":1,"mode":4,"attributes":{"POSITION":0,"NORMAL":1,"TEXCOORD_0":2}},{"indices":5,"material":0,"mode":4,"attributes":{"POSITION":0,"NORMAL":1,"TEXCOORD_0":2}}]}],"nodes":[{"name":"Objects","children":[1]},{"name":"multi-mat","children":[2]},{"name":"multi-mat","children":[3]},{"name":"Box","mesh":0}],"samplers":[{"magFilter":9729,"minFilter":9987,"wrapS":10497,"wrapT":10497},{"magFilter":9729,"minFilter":9987,"wrapS":10497,"wrapT":10497}],"scene":0,"scenes":[{"nodes":[0]}],"textures":[{"sampler":1,"source":2},{"sampler":1,"source":1},{"sampler":0,"source":0}]}