{"accessors":[{"componentType":5126,"type":"VEC3","count":24,"max":[0.5,0.5,0.5],"min":[-0.5,-0.5,-0.5],"bufferView":0},{"componentType":5126,"type":"VEC3","count":24,"bufferView":1},{"componentType":5126,"type":"VEC2","count":24,"bufferView":2},{"componentType":5121,"type":"SCALAR","count":36,"bufferView":3},{"componentType":5126,"type":"VEC3","count":623,"max":[0.5,0.5,0.5],"min":[-0.5,-0.5,-0.5],"bufferView":4},{"componentType":5126,"type":"VEC3","count":623,"bufferView":5},{"componentType":5126,"type":"VEC2","count":623,"bufferView":6},{"componentType":5123,"type":"SCALAR","count":3312,"bufferView":7},{"componentType":5126,"type":"VEC3","count":623,"max":[0.5,0.5,0.5],"min":[-0.5,-0.5,-0.5],"bufferView":8},{"componentType":5126,"type":"VEC3","count":623,"bufferView":9},{"componentType":5126,"type":"VEC2","count":623,"bufferView":10},{"componentType":5123,"type":"SCALAR","count":3312,"bufferView":11},{"componentType":5126,"type":"VEC3","count":623,"max":[0.5,0.5,0.5],"min":[-0.5,-0.5,-0.5],"bufferView":12},{"componentType":5126,"type":"VEC3","count":623,"bufferView":13},{"componentType":5126,"type":"VEC2","count":623,"bufferView":14},{"componentType":5123,"type":"SCALAR","count":3312,"bufferView":15},{"componentType":5126,"type":"VEC3","count":24,"max":[0.5,0.5,0.5],"min":[-0.5,-0.5,-0.5],"bufferView":16},{"componentType":5126,"type":"VEC3","count":24,"bufferView":17},{"componentType":5126,"type":"VEC2","count":24,"bufferView":18},{"componentType":5121,"type":"SCALAR","count":36,"bufferView":19}],"asset":{"version":"2.0","generator":"triptych"},"bufferViews":[{"buffer":0,"byteOffset":0,"byteLength":288,"target":34962,"byteStride":12},{"buffer":0,"byteOffset":288,"byteLength":288,"target":34962,"byteStride":12},{"buffer":0,"byteOffset":576,"byteLength":192,"target":34962,"byteStride":8},{"buffer":0,"byteOffset":768,"byteLength":36,"target":34963},{"buffer":0,"byteOffset":804,"byteLength":7476,"target":34962,"byteStride":12},{"buffer":0,"byteOffset":8280,"byteLength":7476,"target":34962,"byteStride":12},{"buffer":0,"byteOffset":15756,"byteLength":4984,"target":34962,"byteStride":8},{"buffer":0,"byteOffset":20740,"byteLength":6624,"target":34963},{"buffer":0,"byteOffset":27364,"byteLength":7476,"target":34962,"byteStride":12},{"buffer":0,"byteOffset":34840,"byteLength":7476,"target":34962,"byteStride":12},{"buffer":0,"byteOffset":42316,"byteLength":4984,"target":34962,"byteStride":8},{"buffer":0,"byteOffset":47300,"byteLength":6624,"target":34963},{"buffer":0,"byteOffset":53924,"byteLength":7476,"target":34962,"byteStride":12},{"buffer":0,"byteOffset":61400,"byteLength":7476,"target":34962,"byteStride":12},{"buffer":0,"byteOffset":68876,"byteLength":4984,"target":34962,"byteStride":8},{"buffer":0,"byteOffset":73860,"byteLength":6624,"target":34963},{"buffer":0,"byteOffset":80484,"byteLength":288,"target":34962,"byteStride":12},{"buffer":0,"byteOffset":80772,"byteLength":288,"target":34962,"byteStride":12},{"buffer":0,"byteOffset":81060,"byteLength":192,"target":34962,"byteStride":8},{"buffer":0,"byteOffset":81252,"byteLength":36,"target":34963}],"buffers":[{"byteLength":81288,"uri":"data:application/octet-stream;base64,"}],"materials":[{"name":"MaterialM","pbrMetallicRoughness":{"baseColorFactor":[0.94,0.94,0.94,1],"roughnessFactor":0.02}},{"name":"MaterialRM","pbrMetallicRoughness":{"baseColorFactor":[0.94,0.94,0.94,1],"roughnessFactor":0.5,"metallicFactor":0.5}},{"name":"MaterialR","pbrMetallicRoughness":{"baseColorFactor":[0.94,0.94,0.94,1],"roughnessFactor":0.95,"metallicFactor":0}},{"name":"MaterialMnoMap","pbrMetallicRoughness":{"baseColorFactor":[0.94,0.94,0.94,1],"roughnessFactor":0.05}}],"meshes":[{"primitives":[{"indices":3,"material":0,"mode":4,"attributes":{"POSITION":0,"NORMAL":1,"TEXCOORD_0":2}}]},{"primitives":[{"indices":7,"material":1,"mode":4,"attributes":{"POSITION":4,"NORMAL":5,"TEXCOORD_0":6}}]},{"primitives":[{"indices":11,"material":2,"mode":4,"attributes":{"POSITION":8,"NORMAL":9,"TEXCOORD_0":10}}]},{"primitives":[{"indices":15,"material":0,"mode":4,"attributes":{"POSITION":12,"NORMAL":13,"TEXCOORD_0":14}}]},{"primitives":[{"indices":19,"material":3,"mode":4,"attributes":{"POSITION":16,"NORMAL":17,"TEXCOORD_0":18}}]}],"nodes":[{"name":"Objects","children":[1,2,3,4,5]},{"name":"Box","translation":[1.8459231853485107,1,0],"scale":[1,3,0.009999999776482582],"mesh":0},{"name":"Sphere","translation":[0,0,-1.8962624073028564],"mesh":1},{"name":"Sphere","translation":[-1.9889014959335327,0,-1.9449483156204224],"mesh":2},{"name":"Sphere","translation":[1.8749016523361206,0,-1.9843758344650269],"mesh":3},{"name":"Box","translation":[3.6712121963500977,0.5,0],"scale":[1,2,0.009999999776482582],"mesh":4}],"scene":0,"scenes":[{"nodes":[0]}]}