{"accessors":[{"componentType":5126,"type":"VEC3","count":24,"max":[0.5,0.5,0.5],"min":[-0.5,-0.5,-0.5],"bufferView":4},{"componentType":5126,"type":"VEC3","count":24,"bufferView":5},{"componentType":5126,"type":"VEC2","count":24,"bufferView":6},{"componentType":5121,"type":"SCALAR","count":3,"bufferView":7},{"componentType":5121,"type":"SCALAR","count":3,"bufferView":8},{"componentType":5121,"type":"SCALAR","count":3,"bufferView":9},{"componentType":5121,"type":"SCALAR","count":3,"bufferView":10},{"componentType":5121,"type":"SCALAR","count":12,"bufferView":11}],"asset":{"version":"2.0","generator":"triptych"},"bufferViews":[{"buffer":0,"byteOffset":0,"byteLength":3714},{"buffer":0,"byteOffset":8192,"byteLength":67439},{"buffer":0,"byteOffset":75632,"byteLength":417816},{"buffer":0,"byteOffset":493448,"byteLength":1538010},{"buffer":0,"byteOffset":2031460,"byteLength":288,"target":34962,"byteStride":12},{"buffer":0,"byteOffset":2031748,"byteLength":288,"target":34962,"byteStride":12},{"buffer":0,"byteOffset":2032036,"byteLength":192,"target":34962,"byteStride":8},{"buffer":0,"byteOffset":2032228,"byteLength":3,"target":34963},{"buffer":0,"byteOffset":2032232,"byteLength":3,"target":34963},{"buffer":0,"byteOffset":2032236,"byteLength":3,"target":34963},{"buffer":0,"byteOffset":2032240,"byteLength":3,"target":34963},{"buffer":0,"byteOffset":2032244,"byteLength":12,"target":34963}],"buffers":[{"byteLength":2032256,"uri":"data:application/octet-stream;base64,"}],"images":[{"bufferView":2,"mimeType":"image/jpeg"},{"bufferView":1,"mimeType":"image/jpeg"},{"bufferView":3,"mimeType":"image/jpeg"},{"bufferView":0,"mimeType":"image/png"}],"materials":[{"name":"Physical","pbrMetallicRoughness":{"baseColorFactor":[0.6901960784313725,0.6901960784313725,0.6901960784313725,1],"baseColorTexture":{"index":1,"texCoord":0},"roughnessFactor":0.25,"metallicFactor":0}},{"name":"Physical1","pbrMetallicRoughness":{"baseColorFactor":[0.6901960784313725,0.6901960784313725,0.6901960784313725,1],"baseColorTexture":{"index":2,"texCoord":0},"roughnessFactor":0.25,"metallicFactor":0}},{"name":"Physical2","pbrMetallicRoughness":{"baseColorFactor":[0.6901960784313725,0.6901960784313725,0.6901960784313725,1],"baseColorTexture":{"index":0,"texCoord":0},"roughnessFactor":0.25,"metallicFactor":0}},{"name":"Physical3","pbrMetallicRoughness":{"baseColorFactor":[0.6901960784313725,0.6901960784313725,0.6901960784313725,1],"baseColorTexture":{"index":3,"texCoord":0},"roughnessFactor":0.25,"metallicFactor":0}},{"name":"Octahedron","pbrMetallicRoughness":{"baseColorFactor":[0.5,0.5,0.5,1]}}],"meshes":[{"primitives":[{"indices":3,"material":0,"mode":4,"attributes":{"POSITION":0,"NORMAL":1,"TEXCOORD_0":2}},{"indices":4,"material":1,"mode":4,"attributes":{"POSITION":0,"NORMAL":1,"TEXCOORD_0":2}},{"indices":5,"material":2,"mode":4,"attributes":{"POSITION":0,"NORMAL":1,"TEXCOORD_0":2}},{"indices":6,"material":3,"mode":4,"attributes":{"POSITION":0,"NORMAL":1,"TEXCOORD_0":2}},{"indices":7,"material":4,"mode":4,"attributes":{"POSITION":0,"NORMAL":1,"TEXCOORD_0":2}}]}],"nodes":[{"name":"Objects","children":[1]},{"name":"octahedron-multi","children":[2]},{"name":"multi-material","children":[3]},{"name":"Octahedron","mesh":0}],"samplers":[{"magFilter":9729,"minFilter":9987,"wrapS":10497,"wrapT":10497},{"magFilter":9729,"minFilter":9987,"wrapS":10497,"wrapT":10497}],"scene":0,"scenes":[{"nodes":[0]}],"textures":[{"sampler":1,"source":3},{"sampler":1,"source":1},{"sampler":0,"source":0},{"sampler":1,"source":2}]}