{"accessors":[{"componentType":5126,"type":"VEC3","count":148,"max":[0.5,0.05000000074505806,0.5],"min":[-0.5,-0.05000000074505806,-0.5],"bufferView":4},{"componentType":5126,"type":"VEC3","count":148,"bufferView":5},{"componentType":5126,"type":"VEC2","count":148,"bufferView":6},{"componentType":5121,"type":"SCALAR","count":288,"bufferView":7},{"componentType":5126,"type":"VEC3","count":24,"max":[0.5,0.5,0.5],"min":[-0.5,-0.5,-0.5],"bufferView":8},{"componentType":5126,"type":"VEC3","count":24,"bufferView":9},{"componentType":5126,"type":"VEC2","count":24,"bufferView":10},{"componentType":5121,"type":"SCALAR","count":36,"bufferView":11},{"componentType":5126,"type":"VEC3","count":24,"max":[0.5,0.5,0.5],"min":[-0.5,-0.5,-0.5],"bufferView":12},{"componentType":5126,"type":"VEC3","count":24,"bufferView":13},{"componentType":5126,"type":"VEC2","count":24,"bufferView":14},{"componentType":5121,"type":"SCALAR","count":36,"bufferView":15},{"componentType":5126,"type":"VEC3","count":623,"max":[0.5,0.5,0.5],"min":[-0.5,-0.5,-0.5],"bufferView":16},{"componentType":5126,"type":"VEC3","count":623,"bufferView":17},{"componentType":5126,"type":"VEC2","count":623,"bufferView":18},{"componentType":5123,"type":"SCALAR","count":3312,"bufferView":19},{"componentType":5126,"type":"VEC3","count":24,"max":[0.5,0.5,0.5],"min":[-0.5,-0.5,-0.5],"bufferView":20},{"componentType":5126,"type":"VEC3","count":24,"bufferView":21},{"componentType":5126,"type":"VEC2","count":24,"bufferView":22},{"componentType":5121,"type":"SCALAR","count":36,"bufferView":23},{"componentType":5126,"type":"VEC3","count":24,"max":[0.5,0.5,0.5],"min":[-0.5,-0.5,-0.5],"bufferView":24},{"componentType":5126,"type":"VEC3","count":24,"bufferView":25},{"componentType":5126,"type":"VEC2","count":24,"bufferView":26},{"componentType":5121,"type":"SCALAR","count":36,"bufferView":27},{"componentType":5126,"type":"VEC3","count":623,"max":[0.5,0.5,0.5],"min":[-0.5,-0.5,-0.5],"bufferView":28},{"componentType":5126,"type":"VEC3","count":623,"bufferView":29},{"componentType":5126,"type":"VEC2","count":623,"bufferView":30},{"componentType":5123,"type":"SCALAR","count":3312,"bufferView":31},{"componentType":5126,"type":"VEC3","count":24,"max":[0.5,0.5,0.5],"min":[-0.5,-0.5,-0.5],"bufferView":32},{"componentType":5126,"type":"VEC3","count":24,"bufferView":33},{"componentType":5126,"type":"VEC2","count":24,"bufferView":34},{"componentType":5121,"type":"SCALAR","count":36,"bufferView":35},{"componentType":5126,"type":"VEC3","count":24,"max":[0.5,0.5,0.5],"min":[-0.5,-0.5,-0.5],"bufferView":36},{"componentType":5126,"type":"VEC3","count":24,"bufferView":37},{"componentType":5126,"type":"VEC2","count":24,"bufferView":38},{"componentType":5121,"type":"SCALAR","count":36,"bufferView":39},{"componentType":5126,"type":"VEC3","count":623,"max":[0.5,0.5,0.5],"min":[-0.5,-0.5,-0.5],"bufferView":40},{"componentType":5126,"type":"VEC3","count":623,"bufferView":41},{"componentType":5126,"type":"VEC2","count":623,"bufferView":42},{"componentType":5123,"type":"SCALAR","count":3312,"bufferView":43},{"componentType":5126,"type":"VEC3","count":24,"max":[0.5,0.5,0.5],"min":[-0.5,-0.5,-0.5],"bufferView":44},{"componentType":5126,"type":"VEC3","count":24,"bufferView":45},{"componentType":5126,"type":"VEC2","count":24,"bufferView":46},{"componentType":5121,"type":"SCALAR","count":36,"bufferView":47},{"componentType":5126,"type":"VEC3","count":24,"max":[0.5,0.5,0.5],"min":[-0.5,-0.5,-0.5],"bufferView":48},{"componentType":5126,"type":"VEC3","count":24,"bufferView":49},{"componentType":5126,"type":"VEC2","count":24,"bufferView":50},{"componentType":5121,"type":"SCALAR","count":36,"bufferView":51},{"componentType":5126,"type":"VEC3","count":623,"max":[0.5,0.5,0.5],"min":[-0.5,-0.5,-0.5],"bufferView":52},{"componentType":5126,"type":"VEC3","count":623,"bufferView":53},{"componentType":5126,"type":"VEC2","count":623,"bufferView":54},{"componentType":5123,"type":"SCALAR","count":3312,"bufferView":55},{"componentType":5126,"type":"VEC3","count":24,"max":[0.5,0.5,0.5],"min":[-0.5,-0.5,-0.5],"bufferView":56},{"componentType":5126,"type":"VEC3","count":24,"bufferView":57},{"componentType":5126,"type":"VEC2","count":24,"bufferView":58},{"componentType":5121,"type":"SCALAR","count":36,"bufferView":59},{"componentType":5126,"type":"VEC3","count":24,"max":[0.5,0.5,0.5],"min":[-0.5,-0.5,-0.5],"bufferView":60},{"componentType":5126,"type":"VEC3","count":24,"bufferView":61},{"componentType":5126,"type":"VEC2","count":24,"bufferView":62},{"componentType":5121,"type":"SCALAR","count":36,"bufferView":63},{"componentType":5126,"type":"VEC3","count":623,"max":[0.5,0.5,0.5],"min":[-0.5,-0.5,-0.5],"bufferView":64},{"componentType":5126,"type":"VEC3","count":623,"bufferView":65},{"componentType":5126,"type":"VEC2","count":623,"bufferView":66},{"componentType":5123,"type":"SCALAR","count":3312,"bufferView":67}],"asset":{"version":"2.0","generator":"triptych"},"bufferViews":[{"buffer":0,"byteOffset":0,"byteLength":11737},{"buffer":0,"byteOffset":11740,"byteLength":9637},{"buffer":0,"byteOffset":21380,"byteLength":3640},{"buffer":0,"byteOffset":25020,"byteLength":194799},{"buffer":0,"byteOffset":219820,"byteLength":1776,"target":34962,"byteStride":12},{"buffer":0,"byteOffset":221596,"byteLength":1776,"target":34962,"byteStride":12},{"buffer":0,"byteOffset":223372,"byteLength":1184,"target":34962,"byteStride":8},{"buffer":0,"byteOffset":224556,"byteLength":288,"target":34963},{"buffer":0,"byteOffset":224844,"byteLength":288,"target":34962,"byteStride":12},{"buffer":0,"byteOffset":225132,"byteLength":288,"target":34962,"byteStride":12},{"buffer":0,"byteOffset":225420,"byteLength":192,"target":34962,"byteStride":8},{"buffer":0,"byteOffset":225612,"byteLength":36,"target":34963},{"buffer":0,"byteOffset":225648,"byteLength":288,"target":34962,"byteStride":12},{"buffer":0,"byteOffset":225936,"byteLength":288,"target":34962,"byteStride":12},{"buffer":0,"byteOffset":226224,"byteLength":192,"target":34962,"byteStride":8},{"buffer":0,"byteOffset":226416,"byteLength":36,"target":34963},{"buffer":0,"byteOffset":226452,"byteLength":7476,"target":34962,"byteStride":12},{"buffer":0,"byteOffset":233928,"byteLength":7476,"target":34962,"byteStride":12},{"buffer":0,"byteOffset":241404,"byteLength":4984,"target":34962,"byteStride":8},{"buffer":0,"byteOffset":246388,"byteLength":6624,"target":34963},{"buffer":0,"byteOffset":253012,"byteLength":288,"target":34962,"byteStride":12},{"buffer":0,"byteOffset":253300,"byteLength":288,"target":34962,"byteStride":12},{"buffer":0,"byteOffset":253588,"byteLength":192,"target":34962,"byteStride":8},{"buffer":0,"byteOffset":253780,"byteLength":36,"target":34963},{"buffer":0,"byteOffset":253816,"byteLength":288,"target":34962,"byteStride":12},{"buffer":0,"byteOffset":254104,"byteLength":288,"target":34962,"byteStride":12},{"buffer":0,"byteOffset":254392,"byteLength":192,"target":34962,"byteStride":8},{"buffer":0,"byteOffset":254584,"byteLength":36,"target":34963},{"buffer":0,"byteOffset":254620,"byteLength":7476,"target":34962,"byteStride":12},{"buffer":0,"byteOffset":262096,"byteLength":7476,"target":34962,"byteStride":12},{"buffer":0,"byteOffset":269572,"byteLength":4984,"target":34962,"byteStride":8},{"buffer":0,"byteOffset":274556,"byteLength":6624,"target":34963},{"buffer":0,"byteOffset":281180,"byteLength":288,"target":34962,"byteStride":12},{"buffer":0,"byteOffset":281468,"byteLength":288,"target":34962,"byteStride":12},{"buffer":0,"byteOffset":281756,"byteLength":192,"target":34962,"byteStride":8},{"buffer":0,"byteOffset":281948,"byteLength":36,"target":34963},{"buffer":0,"byteOffset":281984,"byteLength":288,"target":34962,"byteStride":12},{"buffer":0,"byteOffset":282272,"byteLength":288,"target":34962,"byteStride":12},{"buffer":0,"byteOffset":282560,"byteLength":192,"target":34962,"byteStride":8},{"buffer":0,"byteOffset":282752,"byteLength":36,"target":34963},{"buffer":0,"byteOffset":282788,"byteLength":7476,"target":34962,"byteStride":12},{"buffer":0,"byteOffset":290264,"byteLength":7476,"target":34962,"byteStride":12},{"buffer":0,"byteOffset":297740,"byteLength":4984,"target":34962,"byteStride":8},{"buffer":0,"byteOffset":302724,"byteLength":6624,"target":34963},{"buffer":0,"byteOffset":309348,"byteLength":288,"target":34962,"byteStride":12},{"buffer":0,"byteOffset":309636,"byteLength":288,"target":34962,"byteStride":12},{"buffer":0,"byteOffset":309924,"byteLength":192,"target":34962,"byteStride":8},{"buffer":0,"byteOffset":310116,"byteLength":36,"target":34963},{"buffer":0,"byteOffset":310152,"byteLength":288,"target":34962,"byteStride":12},{"buffer":0,"byteOffset":310440,"byteLength":288,"target":34962,"byteStride":12},{"buffer":0,"byteOffset":310728,"byteLength":192,"target":34962,"byteStride":8},{"buffer":0,"byteOffset":310920,"byteLength":36,"target":34963},{"buffer":0,"byteOffset":310956,"byteLength":7476,"target":34962,"byteStride":12},{"buffer":0,"byteOffset":318432,"byteLength":7476,"target":34962,"byteStride":12},{"buffer":0,"byteOffset":325908,"byteLength":4984,"target":34962,"byteStride":8},{"buffer":0,"byteOffset":330892,"byteLength":6624,"target":34963},{"buffer":0,"byteOffset":337516,"byteLength":288,"target":34962,"byteStride":12},{"buffer":0,"byteOffset":337804,"byteLength":288,"target":34962,"byteStride":12},{"buffer":0,"byteOffset":338092,"byteLength":192,"target":34962,"byteStride":8},{"buffer":0,"byteOffset":338284,"byteLength":36,"target":34963},{"buffer":0,"byteOffset":338320,"byteLength":288,"target":34962,"byteStride":12},{"buffer":0,"byteOffset":338608,"byteLength":288,"target":34962,"byteStride":12},{"buffer":0,"byteOffset":338896,"byteLength":192,"target":34962,"byteStride":8},{"buffer":0,"byteOffset":339088,"byteLength":36,"target":34963},{"buffer":0,"byteOffset":339124,"byteLength":7476,"target":34962,"byteStride":12},{"buffer":0,"byteOffset":346600,"byteLength":7476,"target":34962,"byteStride":12},{"buffer":0,"byteOffset":354076,"byteLength":4984,"target":34962,"byteStride":8},{"buffer":0,"byteOffset":359060,"byteLength":6624,"target":34963}],"buffers":[{"byteLength":365684,"uri":"data:application/octet-stream;base64,"}],"images":[{"bufferView":0,"mimeType":"image/png"},{"bufferView":3,"mimeType":"image/png"},{"bufferView":1,"mimeType":"image/png"},{"bufferView":2,"mimeType":"image/jpeg"}],"materials":[{"name":"Placeholder","pbrMetallicRoughness":{"baseColorFactor":[0,0,0,1],"baseColorTexture":{"index":0,"texCoord":0},"roughnessFactor":0,"metallicFactor":0,"metallicRoughnessTexture":{"index":2}},"normalTexture":{"index":3,"scale":0}},{"name":"mat","pbrMetallicRoughness":{"baseColorFactor":[1,1,1,0],"baseColorTexture":{"index":1,"texCoord":0},"roughnessFactor":0,"metallicFactor":0},"alphaMode":"BLEND"},{"name":"mat","pbrMetallicRoughness":{"baseColorFactor":[1,1,1,0.25],"baseColorTexture":{"index":1,"texCoord":0},"roughnessFactor":0,"metallicFactor":0},"alphaMode":"BLEND"},{"name":"mat","pbrMetallicRoughness":{"baseColorFactor":[1,1,1,0.5],"baseColorTexture":{"index":1,"texCoord":0},"roughnessFactor":0,"metallicFactor":0},"alphaMode":"BLEND"},{"name":"mat","pbrMetallicRoughness":{"baseColorFactor":[1,1,1,0.75],"baseColorTexture":{"index":1,"texCoord":0},"roughnessFactor":0,"metallicFactor":0},"alphaMode":"BLEND"},{"name":"mat","pbrMetallicRoughness":{"baseColorTexture":{"index":1,"texCoord":0},"roughnessFactor":0,"metallicFactor":0},"alphaMode":"BLEND"}],"meshes":[{"primitives":[{"indices":3,"material":0,"mode":4,"attributes":{"POSITION":0,"NORMAL":1,"TEXCOORD_0":2}}]},{"primitives":[{"indices":7,"material":1,"mode":4,"attributes":{"POSITION":4,"NORMAL":5,"TEXCOORD_0":6}}]},{"primitives":[{"indices":11,"material":1,"mode":4,"attributes":{"POSITION":8,"NORMAL":9,"TEXCOORD_0":10}}]},{"primitives":[{"indices":15,"material":1,"mode":4,"attributes":{"POSITION":12,"NORMAL":13,"TEXCOORD_0":14}}]},{"primitives":[{"indices":19,"material":2,"mode":4,"attributes":{"POSITION":16,"NORMAL":17,"TEXCOORD_0":18}}]},{"primitives":[{"indices":23,"material":2,"mode":4,"attributes":{"POSITION":20,"NORMAL":21,"TEXCOORD_0":22}}]},{"primitives":[{"indices":27,"material":2,"mode":4,"attributes":{"POSITION":24,"NORMAL":25,"TEXCOORD_0":26}}]},{"primitives":[{"indices":31,"material":3,"mode":4,"attributes":{"POSITION":28,"NORMAL":29,"TEXCOORD_0":30}}]},{"primitives":[{"indices":35,"material":3,"mode":4,"attributes":{"POSITION":32,"NORMAL":33,"TEXCOORD_0":34}}]},{"primitives":[{"indices":39,"material":3,"mode":4,"attributes":{"POSITION":36,"NORMAL":37,"TEXCOORD_0":38}}]},{"primitives":[{"indices":43,"material":4,"mode":4,"attributes":{"POSITION":40,"NORMAL":41,"TEXCOORD_0":42}}]},{"primitives":[{"indices":47,"material":4,"mode":4,"attributes":{"POSITION":44,"NORMAL":45,"TEXCOORD_0":46}}]},{"primitives":[{"indices":51,"material":4,"mode":4,"attributes":{"POSITION":48,"NORMAL":49,"TEXCOORD_0":50}}]},{"primitives":[{"indices":55,"material":5,"mode":4,"attributes":{"POSITION":52,"NORMAL":53,"TEXCOORD_0":54}}]},{"primitives":[{"indices":59,"material":5,"mode":4,"attributes":{"POSITION":56,"NORMAL":57,"TEXCOORD_0":58}}]},{"primitives":[{"indices":63,"material":5,"mode":4,"attributes":{"POSITION":60,"NORMAL":61,"TEXCOORD_0":62}}]}],"nodes":[{"name":"base","translation":[0,-0.75,0],"mesh":0},{"name":"variations","children":[2,6,10,14,18]},{"name":"var_(0, 0)","translation":[-2.5,0,0],"scale":[0.5,0.5,0.5],"children":[3,4,5]},{"name":"cube","mesh":1},{"name":"diamond","rotation":[0.35355338851696455,0.14644661001486314,0.35355338851696455,0.8535533870487921],"mesh":2},{"name":"sphere","translation":[0,2,0],"mesh":3},{"name":"var_(1, 0)","translation":[-1.25,0,0],"scale":[0.5,0.5,0.5],"children":[7,8,9]},{"name":"cube","mesh":4},{"name":"diamond","rotation":[0.35355338851696455,0.14644661001486314,0.35355338851696455,0.8535533870487921],"mesh":5},{"name":"sphere","translation":[0,2,0],"mesh":6},{"name":"var_(2, 0)","scale":[0.5,0.5,0.5],"children":[11,12,13]},{"name":"cube","mesh":7},{"name":"diamond","rotation":[0.35355338851696455,0.14644661001486314,0.35355338851696455,0.8535533870487921],"mesh":8},{"name":"sphere","translation":[0,2,0],"mesh":9},{"name":"var_(3, 0)","translation":[1.25,0,0],"scale":[0.5,0.5,0.5],"children":[15,16,17]},{"name":"cube","mesh":10},{"name":"diamond","rotation":[0.35355338851696455,0.14644661001486314,0.35355338851696455,0.8535533870487921],"mesh":11},{"name":"sphere","translation":[0,2,0],"mesh":12},{"name":"var_(4, 0)","translation":[2.5,0,0],"scale":[0.5,0.5,0.5],"children":[19,20,21]},{"name":"cube","mesh":13},{"name":"diamond","rotation":[0.35355338851696455,0.14644661001486314,0.35355338851696455,0.8535533870487921],"mesh":14},{"name":"sphere","translation":[0,2,0],"mesh":15}],"samplers":[{"magFilter":9729,"minFilter":9987,"wrapS":10497,"wrapT":10497},{"magFilter":9729,"minFilter":9987,"wrapS":10497,"wrapT":10497}],"scene":0,"scenes":[{"nodes":[0,1]}],"textures":[{"sampler":0,"source":0},{"sampler":1,"source":2},{"sampler":1,"source":3},{"sampler":1,"source":1}]}