{"accessors":[{"componentType":5126,"type":"VEC3","count":24,"max":[0.5,0.5,0.5],"min":[-0.5,-0.5,-0.5],"bufferView":3},{"componentType":5126,"type":"VEC3","count":24,"bufferView":4},{"componentType":5126,"type":"VEC2","count":24,"bufferView":5},{"componentType":5121,"type":"SCALAR","count":36,"bufferView":6},{"componentType":5126,"type":"VEC3","count":24,"max":[0.5,0.5,0.5],"min":[-0.5,-0.5,-0.5],"bufferView":7},{"componentType":5126,"type":"VEC3","count":24,"bufferView":8},{"componentType":5126,"type":"VEC2","count":24,"bufferView":9},{"componentType":5121,"type":"SCALAR","count":36,"bufferView":10},{"componentType":5126,"type":"VEC3","count":24,"max":[0.5,0.5,0.5],"min":[-0.5,-0.5,-0.5],"bufferView":11},{"componentType":5126,"type":"VEC3","count":24,"bufferView":12},{"componentType":5126,"type":"VEC2","count":24,"bufferView":13},{"componentType":5121,"type":"SCALAR","count":36,"bufferView":14}],"asset":{"version":"2.0","generator":"triptych"},"bufferViews":[{"buffer":0,"byteOffset":0,"byteLength":19346},{"buffer":0,"byteOffset":19348,"byteLength":20953},{"buffer":0,"byteOffset":40304,"byteLength":7060},{"buffer":0,"byteOffset":47364,"byteLength":288,"target":34962,"byteStride":12},{"buffer":0,"byteOffset":47652,"byteLength":288,"target":34962,"byteStride":12},{"buffer":0,"byteOffset":47940,"byteLength":192,"target":34962,"byteStride":8},{"buffer":0,"byteOffset":48132,"byteLength":36,"target":34963},{"buffer":0,"byteOffset":48168,"byteLength":288,"target":34962,"byteStride":12},{"buffer":0,"byteOffset":48456,"byteLength":288,"target":34962,"byteStride":12},{"buffer":0,"byteOffset":48744,"byteLength":192,"target":34962,"byteStride":8},{"buffer":0,"byteOffset":48936,"byteLength":36,"target":34963},{"buffer":0,"byteOffset":48972,"byteLength":288,"target":34962,"byteStride":12},{"buffer":0,"byteOffset":49260,"byteLength":288,"target":34962,"byteStride":12},{"buffer":0,"byteOffset":49548,"byteLength":192,"target":34962,"byteStride":8},{"buffer":0,"byteOffset":49740,"byteLength":36,"target":34963}],"buffers":[{"byteLength":49776,"uri":"data:application/octet-stream;base64,"}],"images":[{"bufferView":0,"mimeType":"image/jpeg"},{"bufferView":1,"mimeType":"image/jpeg"},{"bufferView":2,"mimeType":"image/jpeg"}],"materials":[{"name":"Material R","pbrMetallicRoughness":{"baseColorFactor":[0.94,0.94,0.94,1],"roughnessFactor":0.5,"metallicRoughnessTexture":{"index":0}}},{"name":"Material RM","pbrMetallicRoughness":{"baseColorFactor":[0.94,0.94,0.94,1],"roughnessFactor":0.5,"metallicRoughnessTexture":{"index":1}}},{"name":"Material M","pbrMetallicRoughness":{"baseColorFactor":[0.94,0.94,0.94,1],"roughnessFactor":0.5,"metallicRoughnessTexture":{"index":2}}}],"meshes":[{"primitives":[{"indices":3,"material":0,"mode":4,"attributes":{"POSITION":0,"NORMAL":1,"TEXCOORD_0":2}}]},{"primitives":[{"indices":7,"material":1,"mode":4,"attributes":{"POSITION":4,"NORMAL":5,"TEXCOORD_0":6}}]},{"primitives":[{"indices":11,"material":2,"mode":4,"attributes":{"POSITION":8,"NORMAL":9,"TEXCOORD_0":10}}]}],"nodes":[{"name":"Objects","children":[1,2,3]},{"name":"Box R","translation":[-1.099106788635254,1.1102230246251565e-16,0.4064510762691498],"mesh":0},{"name":"Box RM","translation":[-0.7868457436561584,1.1102230246251565e-16,-0.8868468403816223],"mesh":1},{"name":"Box M","translation":[0.5504179000854492,0,-0.8409287333488464],"mesh":2}],"samplers":[{"magFilter":9729,"minFilter":9987,"wrapS":10497,"wrapT":10497},{"magFilter":9729,"minFilter":9987,"wrapS":10497,"wrapT":10497}],"scene":0,"scenes":[{"nodes":[0]}],"textures":[{"sampler":0,"source":0},{"sampler":1,"source":1},{"sampler":1,"source":2}]}