{"accessors":[{"componentType":5126,"type":"VEC3","count":24,"max":[0.5,0.5,0.5],"min":[-0.5,-0.5,-0.5],"bufferView":0},{"componentType":5126,"type":"VEC3","count":24,"bufferView":1},{"componentType":5126,"type":"VEC2","count":24,"bufferView":2},{"componentType":5121,"type":"SCALAR","count":36,"bufferView":3},{"componentType":5126,"type":"VEC3","count":24,"max":[0.5,0.5,0.5],"min":[-0.5,-0.5,-0.5],"bufferView":4},{"componentType":5126,"type":"VEC3","count":24,"bufferView":5},{"componentType":5126,"type":"VEC2","count":24,"bufferView":6},{"componentType":5121,"type":"SCALAR","count":36,"bufferView":7},{"componentType":5126,"type":"VEC3","count":24,"max":[0.5,0.5,0.5],"min":[-0.5,-0.5,-0.5],"bufferView":8},{"componentType":5126,"type":"VEC3","count":24,"bufferView":9},{"componentType":5126,"type":"VEC2","count":24,"bufferView":10},{"componentType":5121,"type":"SCALAR","count":36,"bufferView":11}],"asset":{"version":"2.0","generator":"triptych"},"bufferViews":[{"buffer":0,"byteOffset":0,"byteLength":288,"target":34962,"byteStride":12},{"buffer":0,"byteOffset":288,"byteLength":288,"target":34962,"byteStride":12},{"buffer":0,"byteOffset":576,"byteLength":192,"target":34962,"byteStride":8},{"buffer":0,"byteOffset":768,"byteLength":36,"target":34963},{"buffer":0,"byteOffset":804,"byteLength":288,"target":34962,"byteStride":12},{"buffer":0,"byteOffset":1092,"byteLength":288,"target":34962,"byteStride":12},{"buffer":0,"byteOffset":1380,"byteLength":192,"target":34962,"byteStride":8},{"buffer":0,"byteOffset":1572,"byteLength":36,"target":34963},{"buffer":0,"byteOffset":1608,"byteLength":288,"target":34962,"byteStride":12},{"buffer":0,"byteOffset":1896,"byteLength":288,"target":34962,"byteStride":12},{"buffer":0,"byteOffset":2184,"byteLength":192,"target":34962,"byteStride":8},{"buffer":0,"byteOffset":2376,"byteLength":36,"target":34963}],"buffers":[{"byteLength":2412,"uri":"data:application/octet-stream;base64,"}],"materials":[{"name":"Material R","pbrMetallicRoughness":{"baseColorFactor":[0.94,0.94,0.94,1],"roughnessFactor":0.5}},{"name":"Material RM","pbrMetallicRoughness":{"baseColorFactor":[0.94,0.94,0.94,1],"roughnessFactor":0.5}},{"name":"Material M","pbrMetallicRoughness":{"baseColorFactor":[0.94,0.94,0.94,1],"roughnessFactor":0.5}}],"meshes":[{"primitives":[{"indices":3,"material":0,"mode":4,"attributes":{"POSITION":0,"NORMAL":1,"TEXCOORD_0":2}}]},{"primitives":[{"indices":7,"material":1,"mode":4,"attributes":{"POSITION":4,"NORMAL":5,"TEXCOORD_0":6}}]},{"primitives":[{"indices":11,"material":2,"mode":4,"attributes":{"POSITION":8,"NORMAL":9,"TEXCOORD_0":10}}]}],"nodes":[{"name":"Objects","children":[1,2,3]},{"name":"Box R","translation":[-1.099106788635254,1.1102230246251565e-16,0.4064510762691498],"mesh":0},{"name":"Box RM","translation":[-0.7868457436561584,1.1102230246251565e-16,-0.8868468403816223],"mesh":1},{"name":"Box M","translation":[0.5504179000854492,0,-0.8409287333488464],"mesh":2}],"scene":0,"scenes":[{"nodes":[0]}]}