{"accessors":[{"componentType":5126,"type":"VEC3","count":120,"max":[0.5,1.0458035469055176,0.5],"min":[-0.5,-0.5,-0.5],"bufferView":2},{"componentType":5126,"type":"VEC3","count":120,"bufferView":3},{"componentType":5126,"type":"VEC2","count":120,"bufferView":4},{"componentType":5121,"type":"SCALAR","count":42,"bufferView":5},{"componentType":5121,"type":"SCALAR","count":36,"bufferView":6},{"componentType":5121,"type":"SCALAR","count":102,"bufferView":7}],"asset":{"version":"2.0","generator":"triptych"},"bufferViews":[{"buffer":0,"byteOffset":0,"byteLength":67439},{"buffer":0,"byteOffset":67440,"byteLength":69289},{"buffer":0,"byteOffset":136732,"byteLength":1440,"target":34962,"byteStride":12},{"buffer":0,"byteOffset":138172,"byteLength":1440,"target":34962,"byteStride":12},{"buffer":0,"byteOffset":139612,"byteLength":960,"target":34962,"byteStride":8},{"buffer":0,"byteOffset":140572,"byteLength":42,"target":34963},{"buffer":0,"byteOffset":140616,"byteLength":36,"target":34963},{"buffer":0,"byteOffset":140652,"byteLength":102,"target":34963}],"buffers":[{"byteLength":140756,"uri":"data:application/octet-stream;base64,"}],"images":[{"bufferView":0,"mimeType":"image/jpeg"},{"bufferView":1,"mimeType":"image/jpeg"}],"materials":[{"name":"Physical1","pbrMetallicRoughness":{"baseColorFactor":[0.6901960784313725,0.6901960784313725,0.6901960784313725,1],"baseColorTexture":{"index":0,"texCoord":0},"roughnessFactor":0.25,"metallicFactor":0}},{"name":"Physical","pbrMetallicRoughness":{"baseColorFactor":[0.6901960784313725,0.6901960784313725,0.6901960784313725,1],"baseColorTexture":{"index":1,"texCoord":0},"roughnessFactor":0.25,"metallicFactor":0}},{"name":"Physical2","pbrMetallicRoughness":{"baseColorFactor":[1,0.22745098039215686,0.22745098039215686,1],"roughnessFactor":0.25,"metallicFactor":0}}],"meshes":[{"primitives":[{"indices":3,"material":1,"mode":4,"attributes":{"POSITION":0,"NORMAL":1,"TEXCOORD_0":2}},{"indices":4,"material":0,"mode":4,"attributes":{"POSITION":0,"NORMAL":1,"TEXCOORD_0":2}},{"indices":5,"material":2,"mode":4,"attributes":{"POSITION":0,"NORMAL":1,"TEXCOORD_0":2}}]}],"nodes":[{"name":"Objects","children":[1]},{"name":"texture-transform","children":[2]},{"name":"Box","mesh":0}],"samplers":[{"magFilter":9729,"minFilter":9987,"wrapS":10497,"wrapT":10497}],"scene":0,"scenes":[{"nodes":[0]}],"textures":[{"sampler":0,"source":0},{"sampler":0,"source":1}]}