{
  "accessors": [
    {
      "componentType": 5126,
      "type": "VEC3",
      "count": 148,
      "max": [
        0.5,
        0.05000000074505806,
        0.5
      ],
      "min": [
        -0.5,
        -0.05000000074505806,
        -0.5
      ],
      "bufferView": 5
    },
    {
      "componentType": 5126,
      "type": "VEC3",
      "count": 148,
      "bufferView": 6
    },
    {
      "componentType": 5126,
      "type": "VEC2",
      "count": 148,
      "bufferView": 7
    },
    {
      "componentType": 5121,
      "type": "SCALAR",
      "count": 288,
      "bufferView": 8
    },
    {
      "componentType": 5126,
      "type": "VEC3",
      "count": 24,
      "max": [
        0.5,
        0.5,
        0.5
      ],
      "min": [
        -0.5,
        -0.5,
        -0.5
      ],
      "bufferView": 9
    },
    {
      "componentType": 5126,
      "type": "VEC3",
      "count": 24,
      "bufferView": 10
    },
    {
      "componentType": 5126,
      "type": "VEC2",
      "count": 24,
      "bufferView": 11
    },
    {
      "componentType": 5121,
      "type": "SCALAR",
      "count": 36,
      "bufferView": 12
    },
    {
      "componentType": 5126,
      "type": "VEC3",
      "count": 24,
      "max": [
        0.5,
        0.5,
        0.5
      ],
      "min": [
        -0.5,
        -0.5,
        -0.5
      ],
      "bufferView": 13
    },
    {
      "componentType": 5126,
      "type": "VEC3",
      "count": 24,
      "bufferView": 14
    },
    {
      "componentType": 5126,
      "type": "VEC2",
      "count": 24,
      "bufferView": 15
    },
    {
      "componentType": 5121,
      "type": "SCALAR",
      "count": 36,
      "bufferView": 16
    },
    {
      "componentType": 5126,
      "type": "VEC3",
      "count": 623,
      "max": [
        0.5,
        0.5,
        0.5
      ],
      "min": [
        -0.5,
        -0.5,
        -0.5
      ],
      "bufferView": 17
    },
    {
      "componentType": 5126,
      "type": "VEC3",
      "count": 623,
      "bufferView": 18
    },
    {
      "componentType": 5126,
      "type": "VEC2",
      "count": 623,
      "bufferView": 19
    },
    {
      "componentType": 5123,
      "type": "SCALAR",
      "count": 3312,
      "bufferView": 20
    }
  ],
  "asset": {
    "version": "2.0",
    "generator": "triptych"
  },
  "bufferViews": [
    {
      "buffer": 0,
      "byteOffset": 0,
      "byteLength": 11737
    },
    {
      "buffer": 0,
      "byteOffset": 11740,
      "byteLength": 194799
    },
    {
      "buffer": 0,
      "byteOffset": 206540,
      "byteLength": 52007
    },
    {
      "buffer": 0,
      "byteOffset": 258548,
      "byteLength": 3640
    },
    {
      "buffer": 0,
      "byteOffset": 262188,
      "byteLength": 39060
    },
    {
      "buffer": 0,
      "byteOffset": 301248,
      "byteLength": 1776,
      "target": 34962,
      "byteStride": 12
    },
    {
      "buffer": 0,
      "byteOffset": 303024,
      "byteLength": 1776,
      "target": 34962,
      "byteStride": 12
    },
    {
      "buffer": 0,
      "byteOffset": 304800,
      "byteLength": 1184,
      "target": 34962,
      "byteStride": 8
    },
    {
      "buffer": 0,
      "byteOffset": 305984,
      "byteLength": 288,
      "target": 34963
    },
    {
      "buffer": 0,
      "byteOffset": 306272,
      "byteLength": 288,
      "target": 34962,
      "byteStride": 12
    },
    {
      "buffer": 0,
      "byteOffset": 306560,
      "byteLength": 288,
      "target": 34962,
      "byteStride": 12
    },
    {
      "buffer": 0,
      "byteOffset": 306848,
      "byteLength": 192,
      "target": 34962,
      "byteStride": 8
    },
    {
      "buffer": 0,
      "byteOffset": 307040,
      "byteLength": 36,
      "target": 34963
    },
    {
      "buffer": 0,
      "byteOffset": 307076,
      "byteLength": 288,
      "target": 34962,
      "byteStride": 12
    },
    {
      "buffer": 0,
      "byteOffset": 307364,
      "byteLength": 288,
      "target": 34962,
      "byteStride": 12
    },
    {
      "buffer": 0,
      "byteOffset": 307652,
      "byteLength": 192,
      "target": 34962,
      "byteStride": 8
    },
    {
      "buffer": 0,
      "byteOffset": 307844,
      "byteLength": 36,
      "target": 34963
    },
    {
      "buffer": 0,
      "byteOffset": 307880,
      "byteLength": 7476,
      "target": 34962,
      "byteStride": 12
    },
    {
      "buffer": 0,
      "byteOffset": 315356,
      "byteLength": 7476,
      "target": 34962,
      "byteStride": 12
    },
    {
      "buffer": 0,
      "byteOffset": 322832,
      "byteLength": 4984,
      "target": 34962,
      "byteStride": 8
    },
    {
      "buffer": 0,
      "byteOffset": 327816,
      "byteLength": 6624,
      "target": 34963
    }
  ],
  "buffers": [
    {
      "byteLength": 334440,
      "uri": "data:application/octet-stream;base64,"
    }
  ],
  "images": [
    {
      "bufferView": 0,
      "mimeType": "image/png"
    },
    {
      "bufferView": 1,
      "mimeType": "image/png"
    },
    {
      "bufferView": 2,
      "mimeType": "image/png"
    },
    {
      "bufferView": 3,
      "mimeType": "image/jpeg"
    },
    {
      "bufferView": 4,
      "mimeType": "image/jpeg"
    }
  ],
  "materials": [
    {
      "name": "Placeholder",
      "pbrMetallicRoughness": {
        "baseColorFactor": [
          0,
          0,
          0,
          1
        ],
        "baseColorTexture": {
          "index": 0,
          "texCoord": 0
        },
        "roughnessFactor": 0,
        "metallicFactor": 0,
        "metallicRoughnessTexture": {
          "index": 3
        }
      },
      "normalTexture": {
        "index": 1,
        "scale": 0
      }
    },
    {
      "name": "mat",
      "pbrMetallicRoughness": {
        "baseColorTexture": {
          "texCoord": 0
        },
        "metallicRoughnessTexture": {
          "index": 4
        }
      },
      "normalTexture": {
        "index": 1
      },
      "occlusionTexture": {
        "index": 4
      },
      "emissiveTexture": {
        "index": 0
      },
      "emissiveFactor": [
        1,
        1,
        1
      ],
      "alphaMode": "BLEND"
    }
  ],
  "meshes": [
    {
      "primitives": [
        {
          "indices": 3,
          "material": 0,
          "mode": 4,
          "attributes": {
            "POSITION": 0,
            "NORMAL": 1,
            "TEXCOORD_0": 2
          }
        }
      ]
    },
    {
      "primitives": [
        {
          "indices": 7,
          "material": 1,
          "mode": 4,
          "attributes": {
            "POSITION": 4,
            "NORMAL": 5,
            "TEXCOORD_0": 6
          }
        }
      ]
    },
    {
      "primitives": [
        {
          "indices": 11,
          "material": 1,
          "mode": 4,
          "attributes": {
            "POSITION": 8,
            "NORMAL": 9,
            "TEXCOORD_0": 10
          }
        }
      ]
    },
    {
      "primitives": [
        {
          "indices": 15,
          "material": 1,
          "mode": 4,
          "attributes": {
            "POSITION": 12,
            "NORMAL": 13,
            "TEXCOORD_0": 14
          }
        }
      ]
    }
  ],
  "nodes": [
    {
      "name": "base",
      "translation": [
        0,
        -0.75,
        0
      ],
      "mesh": 0
    },
    {
      "name": "variations",
      "children": [
        2
      ]
    },
    {
      "name": "var_(0, 0)",
      "scale": [
        0.5,
        0.5,
        0.5
      ],
      "children": [
        3,
        4,
        5
      ]
    },
    {
      "name": "cube",
      "rotation": [
        1,
        0,
        0,
        0
      ],
      "scale": [
        -1,
        1,
        1
      ],
      "mesh": 1
    },
    {
      "name": "diamond",
      "rotation": [
        0.8535533870487921,
        0.35355338851696455,
        -0.14644661001486314,
        -0.35355338851696455
      ],
      "scale": [
        -0.999999982885729,
        0.9999999914428646,
        0.9999999914428646
      ],
      "mesh": 2
    },
    {
      "name": "sphere",
      "translation": [
        0,
        2,
        0
      ],
      "rotation": [
        1,
        0,
        0,
        0
      ],
      "scale": [
        -1,
        1,
        1
      ],
      "mesh": 3
    }
  ],
  "samplers": [
    {
      "magFilter": 9729,
      "minFilter": 9987,
      "wrapS": 10497,
      "wrapT": 10497
    },
    {
      "magFilter": 9729,
      "minFilter": 9987,
      "wrapS": 10497,
      "wrapT": 10497
    }
  ],
  "scene": 0,
  "scenes": [
    {
      "nodes": [
        0,
        1
      ]
    }
  ],
  "textures": [
    {
      "sampler": 0,
      "source": 0
    },
    {
      "sampler": 1,
      "source": 1
    },
    {
      "sampler": 1,
      "source": 2
    },
    {
      "sampler": 1,
      "source": 3
    },
    {
      "sampler": 1,
      "source": 4
    }
  ]
}