{"accessors":[{"componentType":5126,"type":"VEC3","count":24,"max":[0.5,0.5,0.5],"min":[-0.5,-0.5,-0.5],"bufferView":0},{"componentType":5126,"type":"VEC3","count":24,"bufferView":1},{"componentType":5126,"type":"VEC2","count":24,"bufferView":2},{"componentType":5121,"type":"SCALAR","count":36,"bufferView":3},{"componentType":5126,"type":"VEC3","count":24,"max":[0.5,0.5,0.5],"min":[-0.5,-0.5,-0.5],"bufferView":4},{"componentType":5126,"type":"VEC3","count":24,"bufferView":5},{"componentType":5126,"type":"VEC2","count":24,"bufferView":6},{"componentType":5121,"type":"SCALAR","count":36,"bufferView":7},{"componentType":5126,"type":"VEC3","count":24,"max":[0.5,0.5,0.5],"min":[-0.5,-0.5,-0.5],"bufferView":8},{"componentType":5126,"type":"VEC3","count":24,"bufferView":9},{"componentType":5126,"type":"VEC2","count":24,"bufferView":10},{"componentType":5121,"type":"SCALAR","count":36,"bufferView":11},{"componentType":5126,"type":"VEC3","count":24,"max":[0.5,0.5,0.5],"min":[-0.5,-0.5,-0.5],"bufferView":12},{"componentType":5126,"type":"VEC3","count":24,"bufferView":13},{"componentType":5126,"type":"VEC2","count":24,"bufferView":14},{"componentType":5121,"type":"SCALAR","count":36,"bufferView":15},{"componentType":5126,"type":"VEC3","count":24,"max":[0.5,0.5,0.5],"min":[-0.5,-0.5,-0.5],"bufferView":16},{"componentType":5126,"type":"VEC3","count":24,"bufferView":17},{"componentType":5126,"type":"VEC2","count":24,"bufferView":18},{"componentType":5121,"type":"SCALAR","count":36,"bufferView":19},{"componentType":5126,"type":"VEC3","count":24,"max":[0.5,0.5,0.5],"min":[-0.5,-0.5,-0.5],"bufferView":20},{"componentType":5126,"type":"VEC3","count":24,"bufferView":21},{"componentType":5126,"type":"VEC2","count":24,"bufferView":22},{"componentType":5121,"type":"SCALAR","count":36,"bufferView":23}],"asset":{"version":"2.0","generator":"triptych"},"bufferViews":[{"buffer":0,"byteOffset":0,"byteLength":288,"target":34962,"byteStride":12},{"buffer":0,"byteOffset":288,"byteLength":288,"target":34962,"byteStride":12},{"buffer":0,"byteOffset":576,"byteLength":192,"target":34962,"byteStride":8},{"buffer":0,"byteOffset":768,"byteLength":36,"target":34963},{"buffer":0,"byteOffset":804,"byteLength":288,"target":34962,"byteStride":12},{"buffer":0,"byteOffset":1092,"byteLength":288,"target":34962,"byteStride":12},{"buffer":0,"byteOffset":1380,"byteLength":192,"target":34962,"byteStride":8},{"buffer":0,"byteOffset":1572,"byteLength":36,"target":34963},{"buffer":0,"byteOffset":1608,"byteLength":288,"target":34962,"byteStride":12},{"buffer":0,"byteOffset":1896,"byteLength":288,"target":34962,"byteStride":12},{"buffer":0,"byteOffset":2184,"byteLength":192,"target":34962,"byteStride":8},{"buffer":0,"byteOffset":2376,"byteLength":36,"target":34963},{"buffer":0,"byteOffset":2412,"byteLength":288,"target":34962,"byteStride":12},{"buffer":0,"byteOffset":2700,"byteLength":288,"target":34962,"byteStride":12},{"buffer":0,"byteOffset":2988,"byteLength":192,"target":34962,"byteStride":8},{"buffer":0,"byteOffset":3180,"byteLength":36,"target":34963},{"buffer":0,"byteOffset":3216,"byteLength":288,"target":34962,"byteStride":12},{"buffer":0,"byteOffset":3504,"byteLength":288,"target":34962,"byteStride":12},{"buffer":0,"byteOffset":3792,"byteLength":192,"target":34962,"byteStride":8},{"buffer":0,"byteOffset":3984,"byteLength":36,"target":34963},{"buffer":0,"byteOffset":4020,"byteLength":288,"target":34962,"byteStride":12},{"buffer":0,"byteOffset":4308,"byteLength":288,"target":34962,"byteStride":12},{"buffer":0,"byteOffset":4596,"byteLength":192,"target":34962,"byteStride":8},{"buffer":0,"byteOffset":4788,"byteLength":36,"target":34963}],"buffers":[{"byteLength":4824,"uri":"data:application/octet-stream;base64,"}],"materials":[{"name":"Default-Box Original","pbrMetallicRoughness":{"baseColorFactor":[0.6901960784313725,0.6901960784313725,0.6901960784313725,1]}},{"name":"Default-Box","pbrMetallicRoughness":{"baseColorFactor":[1,0,0,1]}},{"name":"Default-Box","pbrMetallicRoughness":{"baseColorFactor":[0,0.12941176470588237,1,1]}},{"name":"Default-Box","pbrMetallicRoughness":{"baseColorFactor":[0,1,0.9882352941176471,1]}},{"name":"Default-Box","pbrMetallicRoughness":{"baseColorFactor":[1,0.8,0,1]}},{"name":"Default-Box","pbrMetallicRoughness":{"baseColorFactor":[1,0.3215686274509804,0,1]}}],"meshes":[{"primitives":[{"indices":3,"mode":4,"attributes":{"POSITION":0,"NORMAL":1,"TEXCOORD_0":2}}]},{"primitives":[{"indices":7,"mode":4,"attributes":{"POSITION":4,"NORMAL":5,"TEXCOORD_0":6}}]},{"primitives":[{"indices":11,"mode":4,"attributes":{"POSITION":8,"NORMAL":9,"TEXCOORD_0":10}}]},{"primitives":[{"indices":15,"mode":4,"attributes":{"POSITION":12,"NORMAL":13,"TEXCOORD_0":14}}]},{"primitives":[{"indices":19,"mode":4,"attributes":{"POSITION":16,"NORMAL":17,"TEXCOORD_0":18}}]},{"primitives":[{"indices":23,"mode":4,"attributes":{"POSITION":20,"NORMAL":21,"TEXCOORD_0":22}}]}],"nodes":[{"name":"Objects","children":[1,2,3,4,5,6]},{"name":"Box Original","mesh":0},{"name":"Box","translation":[-4,0,0],"scale":[1,2,3],"mesh":1},{"name":"Box","translation":[0,0,-4],"rotation":[0.4999999910258843,0,0,0.8660254037844385],"mesh":2},{"name":"Box","translation":[4,0,0],"rotation":[0.17677669212380784,0.30618621784789724,0.17677669212380784,0.9185586535436918],"mesh":3},{"name":"Box","translation":[0,0,4],"rotation":[0,0.2518036917445759,-0.1990682962646448,0.8880203206050582],"scale":[1,1.4142135623730951,2.23606797749979],"mesh":4},{"name":"Box","translation":[1,2,3],"rotation":[0.3625579596290781,-0.1756059537288951,0.014797551808580165,0.889776210214505],"scale":[0.9999999966347066,1.1180340155500468,0.499999991374751],"mesh":5}],"scene":0,"scenes":[{"nodes":[0]}]}