{"accessors":[{"componentType":5126,"type":"VEC3","count":24,"max":[0.5,0.5,0.5],"min":[-0.5,-0.5,-0.5],"bufferView":1},{"componentType":5126,"type":"VEC3","count":24,"bufferView":2},{"componentType":5126,"type":"VEC2","count":24,"bufferView":3},{"componentType":5121,"type":"SCALAR","count":36,"bufferView":4},{"componentType":5126,"type":"VEC3","count":24,"max":[0.5,0.5,0.5],"min":[-0.5,-0.5,-0.5],"bufferView":5},{"componentType":5126,"type":"VEC3","count":24,"bufferView":6},{"componentType":5126,"type":"VEC2","count":24,"bufferView":7},{"componentType":5121,"type":"SCALAR","count":36,"bufferView":8}],"asset":{"version":"2.0","generator":"triptych"},"bufferViews":[{"buffer":0,"byteOffset":0,"byteLength":772074},{"buffer":0,"byteOffset":772076,"byteLength":288,"target":34962,"byteStride":12},{"buffer":0,"byteOffset":772364,"byteLength":288,"target":34962,"byteStride":12},{"buffer":0,"byteOffset":772652,"byteLength":192,"target":34962,"byteStride":8},{"buffer":0,"byteOffset":772844,"byteLength":36,"target":34963},{"buffer":0,"byteOffset":772880,"byteLength":288,"target":34962,"byteStride":12},{"buffer":0,"byteOffset":773168,"byteLength":288,"target":34962,"byteStride":12},{"buffer":0,"byteOffset":773456,"byteLength":192,"target":34962,"byteStride":8},{"buffer":0,"byteOffset":773648,"byteLength":36,"target":34963}],"buffers":[{"byteLength":773684,"uri":"data:application/octet-stream;base64,"}],"images":[{"bufferView":0,"mimeType":"image/png"}],"materials":[{"name":"wulbump","pbrMetallicRoughness":{"baseColorFactor":[0.9490196078431372,0.8549019607843137,0.34901960784313724,1],"roughnessFactor":0.25,"metallicFactor":0}},{"name":"wulnormal","pbrMetallicRoughness":{"baseColorFactor":[0.8,0.34901960784313724,0.34901960784313724,1],"roughnessFactor":0.25,"metallicFactor":0},"normalTexture":{"index":0}}],"meshes":[{"primitives":[{"indices":3,"material":0,"mode":4,"attributes":{"POSITION":0,"NORMAL":1,"TEXCOORD_0":2}}]},{"primitives":[{"indices":7,"material":1,"mode":4,"attributes":{"POSITION":4,"NORMAL":5,"TEXCOORD_0":6}}]}],"nodes":[{"name":"Objects","children":[1,2]},{"name":"Box","translation":[0.8262885808944702,0,0],"mesh":0},{"name":"Box","translation":[-0.9429760575294495,0,0],"mesh":1}],"samplers":[{"magFilter":9729,"minFilter":9987,"wrapS":10497,"wrapT":10497}],"scene":0,"scenes":[{"nodes":[0]}],"textures":[{"sampler":0,"source":0}]}